<?xml version="1.0" encoding="UTF-8" standalone="no"?>
<!DOCTYPE svg PUBLIC "-//W3C//DTD SVG 1.1//EN"
 "http://www.w3.org/Graphics/SVG/1.1/DTD/svg11.dtd">
<!-- Generated by graphviz version 2.49.0 (20210829.0051)
 -->
<!-- Title: snakemake_dag Pages: 1 -->
<svg width="932pt" height="404pt"
 viewBox="0.00 0.00 932.00 404.00" xmlns="http://www.w3.org/2000/svg" xmlns:xlink="http://www.w3.org/1999/xlink">
<g id="graph0" class="graph" transform="scale(1 1) rotate(0) translate(4 400)">
<title>snakemake_dag</title>
<polygon fill="white" stroke="transparent" points="-4,4 -4,-400 928,-400 928,4 -4,4"/>
<!-- 0 -->
<g id="node1" class="node">
<title>0</title>
<path fill="none" stroke="#97d856" stroke-width="2" stroke-dasharray="5,2" d="M430.5,-36C430.5,-36 400.5,-36 400.5,-36 394.5,-36 388.5,-30 388.5,-24 388.5,-24 388.5,-12 388.5,-12 388.5,-6 394.5,0 400.5,0 400.5,0 430.5,0 430.5,0 436.5,0 442.5,-6 442.5,-12 442.5,-12 442.5,-24 442.5,-24 442.5,-30 436.5,-36 430.5,-36"/>
<text text-anchor="middle" x="415.5" y="-15.5" font-family="sans" font-size="10.00">all</text>
</g>
<!-- 1 -->
<g id="node2" class="node">
<title>1</title>
<path fill="none" stroke="#d89556" stroke-width="2" stroke-dasharray="5,2" d="M323.5,-108C323.5,-108 231.5,-108 231.5,-108 225.5,-108 219.5,-102 219.5,-96 219.5,-96 219.5,-84 219.5,-84 219.5,-78 225.5,-72 231.5,-72 231.5,-72 323.5,-72 323.5,-72 329.5,-72 335.5,-78 335.5,-84 335.5,-84 335.5,-96 335.5,-96 335.5,-102 329.5,-108 323.5,-108"/>
<text text-anchor="middle" x="277.5" y="-93" font-family="sans" font-size="10.00">gtdbtk</text>
<text text-anchor="middle" x="277.5" y="-82" font-family="sans" font-size="10.00">sample: shotgun_new</text>
</g>
<!-- 1&#45;&gt;0 -->
<g id="edge1" class="edge">
<title>1&#45;&gt;0</title>
<path fill="none" stroke="grey" stroke-width="2" d="M311.26,-71.88C331.83,-61.44 358.12,-48.1 379.15,-37.44"/>
<polygon fill="grey" stroke="grey" stroke-width="2" points="380.77,-40.54 388.11,-32.9 377.61,-34.3 380.77,-40.54"/>
</g>
<!-- 2 -->
<g id="node3" class="node">
<title>2</title>
<path fill="none" stroke="#d89556" stroke-width="2" stroke-dasharray="5,2" d="M465.5,-108C465.5,-108 365.5,-108 365.5,-108 359.5,-108 353.5,-102 353.5,-96 353.5,-96 353.5,-84 353.5,-84 353.5,-78 359.5,-72 365.5,-72 365.5,-72 465.5,-72 465.5,-72 471.5,-72 477.5,-78 477.5,-84 477.5,-84 477.5,-96 477.5,-96 477.5,-102 471.5,-108 465.5,-108"/>
<text text-anchor="middle" x="415.5" y="-93" font-family="sans" font-size="10.00">gtdbtk</text>
<text text-anchor="middle" x="415.5" y="-82" font-family="sans" font-size="10.00">sample: shotgun_fahad</text>
</g>
<!-- 2&#45;&gt;0 -->
<g id="edge2" class="edge">
<title>2&#45;&gt;0</title>
<path fill="none" stroke="grey" stroke-width="2" d="M415.5,-71.7C415.5,-63.98 415.5,-54.71 415.5,-46.11"/>
<polygon fill="grey" stroke="grey" stroke-width="2" points="419,-46.1 415.5,-36.1 412,-46.1 419,-46.1"/>
</g>
<!-- 3 -->
<g id="node4" class="node">
<title>3</title>
<path fill="none" stroke="#5663d8" stroke-width="2" stroke-dasharray="5,2" d="M557.5,-108C557.5,-108 507.5,-108 507.5,-108 501.5,-108 495.5,-102 495.5,-96 495.5,-96 495.5,-84 495.5,-84 495.5,-78 501.5,-72 507.5,-72 507.5,-72 557.5,-72 557.5,-72 563.5,-72 569.5,-78 569.5,-84 569.5,-84 569.5,-96 569.5,-96 569.5,-102 563.5,-108 557.5,-108"/>
<text text-anchor="middle" x="532.5" y="-87.5" font-family="sans" font-size="10.00">merge_fasta</text>
</g>
<!-- 3&#45;&gt;0 -->
<g id="edge3" class="edge">
<title>3&#45;&gt;0</title>
<path fill="none" stroke="grey" stroke-width="2" d="M503.88,-71.88C488.12,-62.45 468.42,-50.66 451.61,-40.61"/>
<polygon fill="grey" stroke="grey" stroke-width="2" points="453,-37.36 442.62,-35.23 449.4,-43.36 453,-37.36"/>
</g>
<!-- 4 -->
<g id="node5" class="node">
<title>4</title>
<path fill="none" stroke="#88d856" stroke-width="2" stroke-dasharray="5,2" d="M198.5,-180C198.5,-180 142.5,-180 142.5,-180 136.5,-180 130.5,-174 130.5,-168 130.5,-168 130.5,-156 130.5,-156 130.5,-150 136.5,-144 142.5,-144 142.5,-144 198.5,-144 198.5,-144 204.5,-144 210.5,-150 210.5,-156 210.5,-156 210.5,-168 210.5,-168 210.5,-174 204.5,-180 198.5,-180"/>
<text text-anchor="middle" x="170.5" y="-159.5" font-family="sans" font-size="10.00">convert_fasta</text>
</g>
<!-- 4&#45;&gt;3 -->
<g id="edge4" class="edge">
<title>4&#45;&gt;3</title>
<path fill="none" stroke="grey" stroke-width="2" d="M210.77,-153.35C226.84,-150.35 245.53,-146.93 262.5,-144 358.76,-127.37 387.21,-133.2 485.55,-107.98"/>
<polygon fill="grey" stroke="grey" stroke-width="2" points="486.49,-111.35 495.29,-105.44 484.73,-104.58 486.49,-111.35"/>
</g>
<!-- 5 -->
<g id="node6" class="node">
<title>5</title>
<path fill="none" stroke="#56d85b" stroke-width="2" stroke-dasharray="5,2" d="M155,-252C155,-252 12,-252 12,-252 6,-252 0,-246 0,-240 0,-240 0,-228 0,-228 0,-222 6,-216 12,-216 12,-216 155,-216 155,-216 161,-216 167,-222 167,-228 167,-228 167,-240 167,-240 167,-246 161,-252 155,-252"/>
<text text-anchor="middle" x="83.5" y="-237" font-family="sans" font-size="10.00">nanofilt_amplicon</text>
<text text-anchor="middle" x="83.5" y="-226" font-family="sans" font-size="10.00">amplicon: BC04_porechop_fahad</text>
</g>
<!-- 5&#45;&gt;4 -->
<g id="edge10" class="edge">
<title>5&#45;&gt;4</title>
<path fill="none" stroke="grey" stroke-width="2" d="M105.01,-215.7C115.96,-206.88 129.45,-196.03 141.32,-186.47"/>
<polygon fill="grey" stroke="grey" stroke-width="2" points="143.64,-189.1 149.24,-180.1 139.26,-183.65 143.64,-189.1"/>
</g>
<!-- 6 -->
<g id="node7" class="node">
<title>6</title>
<path fill="none" stroke="#d8bc56" stroke-width="2" stroke-dasharray="5,2" d="M151,-324C151,-324 16,-324 16,-324 10,-324 4,-318 4,-312 4,-312 4,-300 4,-300 4,-294 10,-288 16,-288 16,-288 151,-288 151,-288 157,-288 163,-294 163,-300 163,-300 163,-312 163,-312 163,-318 157,-324 151,-324"/>
<text text-anchor="middle" x="83.5" y="-309" font-family="sans" font-size="10.00">porechop</text>
<text text-anchor="middle" x="83.5" y="-298" font-family="sans" font-size="10.00">sample: BC04_porechop_fahad</text>
</g>
<!-- 6&#45;&gt;5 -->
<g id="edge11" class="edge">
<title>6&#45;&gt;5</title>
<path fill="none" stroke="grey" stroke-width="2" d="M83.5,-287.7C83.5,-279.98 83.5,-270.71 83.5,-262.11"/>
<polygon fill="grey" stroke="grey" stroke-width="2" points="87,-262.1 83.5,-252.1 80,-262.1 87,-262.1"/>
</g>
<!-- 7 -->
<g id="node8" class="node">
<title>7</title>
<path fill="none" stroke="#88d856" stroke-width="2" stroke-dasharray="5,2" d="M339.5,-180C339.5,-180 283.5,-180 283.5,-180 277.5,-180 271.5,-174 271.5,-168 271.5,-168 271.5,-156 271.5,-156 271.5,-150 277.5,-144 283.5,-144 283.5,-144 339.5,-144 339.5,-144 345.5,-144 351.5,-150 351.5,-156 351.5,-156 351.5,-168 351.5,-168 351.5,-174 345.5,-180 339.5,-180"/>
<text text-anchor="middle" x="311.5" y="-159.5" font-family="sans" font-size="10.00">convert_fasta</text>
</g>
<!-- 7&#45;&gt;3 -->
<g id="edge5" class="edge">
<title>7&#45;&gt;3</title>
<path fill="none" stroke="grey" stroke-width="2" d="M351.68,-149.57C385.21,-139.87 434.42,-125.25 485.8,-108.15"/>
<polygon fill="grey" stroke="grey" stroke-width="2" points="487.04,-111.42 495.41,-104.92 484.82,-104.78 487.04,-111.42"/>
</g>
<!-- 8 -->
<g id="node9" class="node">
<title>8</title>
<path fill="none" stroke="#56d85b" stroke-width="2" stroke-dasharray="5,2" d="M340,-252C340,-252 197,-252 197,-252 191,-252 185,-246 185,-240 185,-240 185,-228 185,-228 185,-222 191,-216 197,-216 197,-216 340,-216 340,-216 346,-216 352,-222 352,-228 352,-228 352,-240 352,-240 352,-246 346,-252 340,-252"/>
<text text-anchor="middle" x="268.5" y="-237" font-family="sans" font-size="10.00">nanofilt_amplicon</text>
<text text-anchor="middle" x="268.5" y="-226" font-family="sans" font-size="10.00">amplicon: BC02_porechop_fahad</text>
</g>
<!-- 8&#45;&gt;7 -->
<g id="edge12" class="edge">
<title>8&#45;&gt;7</title>
<path fill="none" stroke="grey" stroke-width="2" d="M279.13,-215.7C284.13,-207.56 290.19,-197.69 295.71,-188.7"/>
<polygon fill="grey" stroke="grey" stroke-width="2" points="298.74,-190.46 300.99,-180.1 292.78,-186.79 298.74,-190.46"/>
</g>
<!-- 9 -->
<g id="node10" class="node">
<title>9</title>
<path fill="none" stroke="#d8bc56" stroke-width="2" stroke-dasharray="5,2" d="M336,-324C336,-324 201,-324 201,-324 195,-324 189,-318 189,-312 189,-312 189,-300 189,-300 189,-294 195,-288 201,-288 201,-288 336,-288 336,-288 342,-288 348,-294 348,-300 348,-300 348,-312 348,-312 348,-318 342,-324 336,-324"/>
<text text-anchor="middle" x="268.5" y="-309" font-family="sans" font-size="10.00">porechop</text>
<text text-anchor="middle" x="268.5" y="-298" font-family="sans" font-size="10.00">sample: BC02_porechop_fahad</text>
</g>
<!-- 9&#45;&gt;8 -->
<g id="edge13" class="edge">
<title>9&#45;&gt;8</title>
<path fill="none" stroke="grey" stroke-width="2" d="M268.5,-287.7C268.5,-279.98 268.5,-270.71 268.5,-262.11"/>
<polygon fill="grey" stroke="grey" stroke-width="2" points="272,-262.1 268.5,-252.1 265,-262.1 272,-262.1"/>
</g>
<!-- 10 -->
<g id="node11" class="node">
<title>10</title>
<path fill="none" stroke="#88d856" stroke-width="2" stroke-dasharray="5,2" d="M496.5,-180C496.5,-180 440.5,-180 440.5,-180 434.5,-180 428.5,-174 428.5,-168 428.5,-168 428.5,-156 428.5,-156 428.5,-150 434.5,-144 440.5,-144 440.5,-144 496.5,-144 496.5,-144 502.5,-144 508.5,-150 508.5,-156 508.5,-156 508.5,-168 508.5,-168 508.5,-174 502.5,-180 496.5,-180"/>
<text text-anchor="middle" x="468.5" y="-159.5" font-family="sans" font-size="10.00">convert_fasta</text>
</g>
<!-- 10&#45;&gt;3 -->
<g id="edge6" class="edge">
<title>10&#45;&gt;3</title>
<path fill="none" stroke="grey" stroke-width="2" d="M484.32,-143.7C492.07,-135.22 501.54,-124.86 510.02,-115.58"/>
<polygon fill="grey" stroke="grey" stroke-width="2" points="512.7,-117.85 516.86,-108.1 507.53,-113.12 512.7,-117.85"/>
</g>
<!-- 11 -->
<g id="node12" class="node">
<title>11</title>
<path fill="none" stroke="#56d85b" stroke-width="2" stroke-dasharray="5,2" d="M525,-252C525,-252 382,-252 382,-252 376,-252 370,-246 370,-240 370,-240 370,-228 370,-228 370,-222 376,-216 382,-216 382,-216 525,-216 525,-216 531,-216 537,-222 537,-228 537,-228 537,-240 537,-240 537,-246 531,-252 525,-252"/>
<text text-anchor="middle" x="453.5" y="-237" font-family="sans" font-size="10.00">nanofilt_amplicon</text>
<text text-anchor="middle" x="453.5" y="-226" font-family="sans" font-size="10.00">amplicon: BC03_porechop_fahad</text>
</g>
<!-- 11&#45;&gt;10 -->
<g id="edge14" class="edge">
<title>11&#45;&gt;10</title>
<path fill="none" stroke="grey" stroke-width="2" d="M457.21,-215.7C458.86,-207.98 460.85,-198.71 462.69,-190.11"/>
<polygon fill="grey" stroke="grey" stroke-width="2" points="466.16,-190.62 464.83,-180.1 459.32,-189.15 466.16,-190.62"/>
</g>
<!-- 12 -->
<g id="node13" class="node">
<title>12</title>
<path fill="none" stroke="#d8bc56" stroke-width="2" stroke-dasharray="5,2" d="M521,-324C521,-324 386,-324 386,-324 380,-324 374,-318 374,-312 374,-312 374,-300 374,-300 374,-294 380,-288 386,-288 386,-288 521,-288 521,-288 527,-288 533,-294 533,-300 533,-300 533,-312 533,-312 533,-318 527,-324 521,-324"/>
<text text-anchor="middle" x="453.5" y="-309" font-family="sans" font-size="10.00">porechop</text>
<text text-anchor="middle" x="453.5" y="-298" font-family="sans" font-size="10.00">sample: BC03_porechop_fahad</text>
</g>
<!-- 12&#45;&gt;11 -->
<g id="edge15" class="edge">
<title>12&#45;&gt;11</title>
<path fill="none" stroke="grey" stroke-width="2" d="M453.5,-287.7C453.5,-279.98 453.5,-270.71 453.5,-262.11"/>
<polygon fill="grey" stroke="grey" stroke-width="2" points="457,-262.1 453.5,-252.1 450,-262.1 457,-262.1"/>
</g>
<!-- 13 -->
<g id="node14" class="node">
<title>13</title>
<path fill="none" stroke="#88d856" stroke-width="2" stroke-dasharray="5,2" d="M623.5,-180C623.5,-180 567.5,-180 567.5,-180 561.5,-180 555.5,-174 555.5,-168 555.5,-168 555.5,-156 555.5,-156 555.5,-150 561.5,-144 567.5,-144 567.5,-144 623.5,-144 623.5,-144 629.5,-144 635.5,-150 635.5,-156 635.5,-156 635.5,-168 635.5,-168 635.5,-174 629.5,-180 623.5,-180"/>
<text text-anchor="middle" x="595.5" y="-159.5" font-family="sans" font-size="10.00">convert_fasta</text>
</g>
<!-- 13&#45;&gt;3 -->
<g id="edge7" class="edge">
<title>13&#45;&gt;3</title>
<path fill="none" stroke="grey" stroke-width="2" d="M579.93,-143.7C572.3,-135.22 562.98,-124.86 554.62,-115.58"/>
<polygon fill="grey" stroke="grey" stroke-width="2" points="557.19,-113.2 547.89,-108.1 551.98,-117.88 557.19,-113.2"/>
</g>
<!-- 14 -->
<g id="node15" class="node">
<title>14</title>
<path fill="none" stroke="#56d85b" stroke-width="2" stroke-dasharray="5,2" d="M654,-252C654,-252 567,-252 567,-252 561,-252 555,-246 555,-240 555,-240 555,-228 555,-228 555,-222 561,-216 567,-216 567,-216 654,-216 654,-216 660,-216 666,-222 666,-228 666,-228 666,-240 666,-240 666,-246 660,-252 654,-252"/>
<text text-anchor="middle" x="610.5" y="-237" font-family="sans" font-size="10.00">nanofilt_amplicon</text>
<text text-anchor="middle" x="610.5" y="-226" font-family="sans" font-size="10.00">amplicon: BC04_new</text>
</g>
<!-- 14&#45;&gt;13 -->
<g id="edge16" class="edge">
<title>14&#45;&gt;13</title>
<path fill="none" stroke="grey" stroke-width="2" d="M606.79,-215.7C605.14,-207.98 603.15,-198.71 601.31,-190.11"/>
<polygon fill="grey" stroke="grey" stroke-width="2" points="604.68,-189.15 599.17,-180.1 597.84,-190.62 604.68,-189.15"/>
</g>
<!-- 15 -->
<g id="node16" class="node">
<title>15</title>
<path fill="none" stroke="#d8bc56" stroke-width="2" stroke-dasharray="5,2" d="M654,-324C654,-324 575,-324 575,-324 569,-324 563,-318 563,-312 563,-312 563,-300 563,-300 563,-294 569,-288 575,-288 575,-288 654,-288 654,-288 660,-288 666,-294 666,-300 666,-300 666,-312 666,-312 666,-318 660,-324 654,-324"/>
<text text-anchor="middle" x="614.5" y="-309" font-family="sans" font-size="10.00">porechop</text>
<text text-anchor="middle" x="614.5" y="-298" font-family="sans" font-size="10.00">sample: BC04_new</text>
</g>
<!-- 15&#45;&gt;14 -->
<g id="edge17" class="edge">
<title>15&#45;&gt;14</title>
<path fill="none" stroke="grey" stroke-width="2" d="M613.51,-287.7C613.07,-279.98 612.54,-270.71 612.05,-262.11"/>
<polygon fill="grey" stroke="grey" stroke-width="2" points="615.54,-261.89 611.48,-252.1 608.55,-262.29 615.54,-261.89"/>
</g>
<!-- 16 -->
<g id="node17" class="node">
<title>16</title>
<path fill="none" stroke="#b6d856" stroke-width="2" stroke-dasharray="5,2" d="M773.5,-396C773.5,-396 705.5,-396 705.5,-396 699.5,-396 693.5,-390 693.5,-384 693.5,-384 693.5,-372 693.5,-372 693.5,-366 699.5,-360 705.5,-360 705.5,-360 773.5,-360 773.5,-360 779.5,-360 785.5,-366 785.5,-372 785.5,-372 785.5,-384 785.5,-384 785.5,-390 779.5,-396 773.5,-396"/>
<text text-anchor="middle" x="739.5" y="-375.5" font-family="sans" font-size="10.00">guppy_barcoder</text>
</g>
<!-- 16&#45;&gt;15 -->
<g id="edge18" class="edge">
<title>16&#45;&gt;15</title>
<path fill="none" stroke="grey" stroke-width="2" d="M708.92,-359.88C692.43,-350.64 671.88,-339.13 654.16,-329.21"/>
<polygon fill="grey" stroke="grey" stroke-width="2" points="655.63,-326.02 645.2,-324.19 652.21,-332.13 655.63,-326.02"/>
</g>
<!-- 19 -->
<g id="node20" class="node">
<title>19</title>
<path fill="none" stroke="#d8bc56" stroke-width="2" stroke-dasharray="5,2" d="M779,-324C779,-324 700,-324 700,-324 694,-324 688,-318 688,-312 688,-312 688,-300 688,-300 688,-294 694,-288 700,-288 700,-288 779,-288 779,-288 785,-288 791,-294 791,-300 791,-300 791,-312 791,-312 791,-318 785,-324 779,-324"/>
<text text-anchor="middle" x="739.5" y="-309" font-family="sans" font-size="10.00">porechop</text>
<text text-anchor="middle" x="739.5" y="-298" font-family="sans" font-size="10.00">sample: BC02_new</text>
</g>
<!-- 16&#45;&gt;19 -->
<g id="edge21" class="edge">
<title>16&#45;&gt;19</title>
<path fill="none" stroke="grey" stroke-width="2" d="M739.5,-359.7C739.5,-351.98 739.5,-342.71 739.5,-334.11"/>
<polygon fill="grey" stroke="grey" stroke-width="2" points="743,-334.1 739.5,-324.1 736,-334.1 743,-334.1"/>
</g>
<!-- 22 -->
<g id="node23" class="node">
<title>22</title>
<path fill="none" stroke="#d8bc56" stroke-width="2" stroke-dasharray="5,2" d="M904,-324C904,-324 825,-324 825,-324 819,-324 813,-318 813,-312 813,-312 813,-300 813,-300 813,-294 819,-288 825,-288 825,-288 904,-288 904,-288 910,-288 916,-294 916,-300 916,-300 916,-312 916,-312 916,-318 910,-324 904,-324"/>
<text text-anchor="middle" x="864.5" y="-309" font-family="sans" font-size="10.00">porechop</text>
<text text-anchor="middle" x="864.5" y="-298" font-family="sans" font-size="10.00">sample: BC03_new</text>
</g>
<!-- 16&#45;&gt;22 -->
<g id="edge24" class="edge">
<title>16&#45;&gt;22</title>
<path fill="none" stroke="grey" stroke-width="2" d="M770.08,-359.88C786.57,-350.64 807.12,-339.13 824.84,-329.21"/>
<polygon fill="grey" stroke="grey" stroke-width="2" points="826.79,-332.13 833.8,-324.19 823.37,-326.02 826.79,-332.13"/>
</g>
<!-- 17 -->
<g id="node18" class="node">
<title>17</title>
<path fill="none" stroke="#88d856" stroke-width="2" stroke-dasharray="5,2" d="M751.5,-180C751.5,-180 695.5,-180 695.5,-180 689.5,-180 683.5,-174 683.5,-168 683.5,-168 683.5,-156 683.5,-156 683.5,-150 689.5,-144 695.5,-144 695.5,-144 751.5,-144 751.5,-144 757.5,-144 763.5,-150 763.5,-156 763.5,-156 763.5,-168 763.5,-168 763.5,-174 757.5,-180 751.5,-180"/>
<text text-anchor="middle" x="723.5" y="-159.5" font-family="sans" font-size="10.00">convert_fasta</text>
</g>
<!-- 17&#45;&gt;3 -->
<g id="edge8" class="edge">
<title>17&#45;&gt;3</title>
<path fill="none" stroke="grey" stroke-width="2" d="M683.46,-146.33C653.03,-135.17 611.09,-119.8 579.14,-108.09"/>
<polygon fill="grey" stroke="grey" stroke-width="2" points="580.17,-104.74 569.57,-104.59 577.76,-111.31 580.17,-104.74"/>
</g>
<!-- 18 -->
<g id="node19" class="node">
<title>18</title>
<path fill="none" stroke="#56d85b" stroke-width="2" stroke-dasharray="5,2" d="M783,-252C783,-252 696,-252 696,-252 690,-252 684,-246 684,-240 684,-240 684,-228 684,-228 684,-222 690,-216 696,-216 696,-216 783,-216 783,-216 789,-216 795,-222 795,-228 795,-228 795,-240 795,-240 795,-246 789,-252 783,-252"/>
<text text-anchor="middle" x="739.5" y="-237" font-family="sans" font-size="10.00">nanofilt_amplicon</text>
<text text-anchor="middle" x="739.5" y="-226" font-family="sans" font-size="10.00">amplicon: BC02_new</text>
</g>
<!-- 18&#45;&gt;17 -->
<g id="edge19" class="edge">
<title>18&#45;&gt;17</title>
<path fill="none" stroke="grey" stroke-width="2" d="M735.54,-215.7C733.78,-207.98 731.66,-198.71 729.7,-190.11"/>
<polygon fill="grey" stroke="grey" stroke-width="2" points="733.05,-189.07 727.41,-180.1 726.23,-190.63 733.05,-189.07"/>
</g>
<!-- 19&#45;&gt;18 -->
<g id="edge20" class="edge">
<title>19&#45;&gt;18</title>
<path fill="none" stroke="grey" stroke-width="2" d="M739.5,-287.7C739.5,-279.98 739.5,-270.71 739.5,-262.11"/>
<polygon fill="grey" stroke="grey" stroke-width="2" points="743,-262.1 739.5,-252.1 736,-262.1 743,-262.1"/>
</g>
<!-- 20 -->
<g id="node21" class="node">
<title>20</title>
<path fill="none" stroke="#88d856" stroke-width="2" stroke-dasharray="5,2" d="M880.5,-180C880.5,-180 824.5,-180 824.5,-180 818.5,-180 812.5,-174 812.5,-168 812.5,-168 812.5,-156 812.5,-156 812.5,-150 818.5,-144 824.5,-144 824.5,-144 880.5,-144 880.5,-144 886.5,-144 892.5,-150 892.5,-156 892.5,-156 892.5,-168 892.5,-168 892.5,-174 886.5,-180 880.5,-180"/>
<text text-anchor="middle" x="852.5" y="-159.5" font-family="sans" font-size="10.00">convert_fasta</text>
</g>
<!-- 20&#45;&gt;3 -->
<g id="edge9" class="edge">
<title>20&#45;&gt;3</title>
<path fill="none" stroke="grey" stroke-width="2" d="M812.3,-152.21C753.14,-139.27 642.88,-115.15 579.88,-101.36"/>
<polygon fill="grey" stroke="grey" stroke-width="2" points="580.33,-97.88 569.81,-99.16 578.83,-104.72 580.33,-97.88"/>
</g>
<!-- 21 -->
<g id="node22" class="node">
<title>21</title>
<path fill="none" stroke="#56d85b" stroke-width="2" stroke-dasharray="5,2" d="M912,-252C912,-252 825,-252 825,-252 819,-252 813,-246 813,-240 813,-240 813,-228 813,-228 813,-222 819,-216 825,-216 825,-216 912,-216 912,-216 918,-216 924,-222 924,-228 924,-228 924,-240 924,-240 924,-246 918,-252 912,-252"/>
<text text-anchor="middle" x="868.5" y="-237" font-family="sans" font-size="10.00">nanofilt_amplicon</text>
<text text-anchor="middle" x="868.5" y="-226" font-family="sans" font-size="10.00">amplicon: BC03_new</text>
</g>
<!-- 21&#45;&gt;20 -->
<g id="edge22" class="edge">
<title>21&#45;&gt;20</title>
<path fill="none" stroke="grey" stroke-width="2" d="M864.54,-215.7C862.78,-207.98 860.66,-198.71 858.7,-190.11"/>
<polygon fill="grey" stroke="grey" stroke-width="2" points="862.05,-189.07 856.41,-180.1 855.23,-190.63 862.05,-189.07"/>
</g>
<!-- 22&#45;&gt;21 -->
<g id="edge23" class="edge">
<title>22&#45;&gt;21</title>
<path fill="none" stroke="grey" stroke-width="2" d="M865.49,-287.7C865.93,-279.98 866.46,-270.71 866.95,-262.11"/>
<polygon fill="grey" stroke="grey" stroke-width="2" points="870.45,-262.29 867.52,-252.1 863.46,-261.89 870.45,-262.29"/>
</g>
</g>
</svg>
