<?xml version="1.0" encoding="UTF-8" standalone="no"?>
<!DOCTYPE svg PUBLIC "-//W3C//DTD SVG 1.1//EN"
 "http://www.w3.org/Graphics/SVG/1.1/DTD/svg11.dtd">
<!-- Generated by graphviz version 2.49.0 (20210829.0051)
 -->
<!-- Title: snakemake_dag Pages: 1 -->
<svg width="1637pt" height="1052pt"
 viewBox="0.00 0.00 1637.35 1052.00" xmlns="http://www.w3.org/2000/svg" xmlns:xlink="http://www.w3.org/1999/xlink">
<g id="graph0" class="graph" transform="scale(1 1) rotate(0) translate(4 1048)">
<title>snakemake_dag</title>
<polygon fill="white" stroke="transparent" points="-4,4 -4,-1048 1633.35,-1048 1633.35,4 -4,4"/>
<!-- 0 -->
<g id="node1" class="node">
<title>0</title>
<path fill="none" stroke="#56c1d8" stroke-width="2" d="M733.35,-36C733.35,-36 703.35,-36 703.35,-36 697.35,-36 691.35,-30 691.35,-24 691.35,-24 691.35,-12 691.35,-12 691.35,-6 697.35,0 703.35,0 703.35,0 733.35,0 733.35,0 739.35,0 745.35,-6 745.35,-12 745.35,-12 745.35,-24 745.35,-24 745.35,-30 739.35,-36 733.35,-36"/>
<text text-anchor="middle" x="718.35" y="-15.5" font-family="sans" font-size="10.00">all</text>
</g>
<!-- 1 -->
<g id="node2" class="node">
<title>1</title>
<path fill="none" stroke="#56d8d8" stroke-width="2" d="M202.35,-108C202.35,-108 110.35,-108 110.35,-108 104.35,-108 98.35,-102 98.35,-96 98.35,-96 98.35,-84 98.35,-84 98.35,-78 104.35,-72 110.35,-72 110.35,-72 202.35,-72 202.35,-72 208.35,-72 214.35,-78 214.35,-84 214.35,-84 214.35,-96 214.35,-96 214.35,-102 208.35,-108 202.35,-108"/>
<text text-anchor="middle" x="156.35" y="-93" font-family="sans" font-size="10.00">gtdbtk</text>
<text text-anchor="middle" x="156.35" y="-82" font-family="sans" font-size="10.00">sample: shotgun_new</text>
</g>
<!-- 1&#45;&gt;0 -->
<g id="edge1" class="edge">
<title>1&#45;&gt;0</title>
<path fill="none" stroke="grey" stroke-width="2" d="M214.71,-73.67C217.62,-73.07 220.51,-72.51 223.35,-72 392.86,-41.58 598.39,-26.4 681.17,-21.17"/>
<polygon fill="grey" stroke="grey" stroke-width="2" points="681.57,-24.65 691.33,-20.54 681.13,-17.67 681.57,-24.65"/>
</g>
<!-- 2 -->
<g id="node3" class="node">
<title>2</title>
<path fill="none" stroke="#56d8d8" stroke-width="2" d="M344.35,-108C344.35,-108 244.35,-108 244.35,-108 238.35,-108 232.35,-102 232.35,-96 232.35,-96 232.35,-84 232.35,-84 232.35,-78 238.35,-72 244.35,-72 244.35,-72 344.35,-72 344.35,-72 350.35,-72 356.35,-78 356.35,-84 356.35,-84 356.35,-96 356.35,-96 356.35,-102 350.35,-108 344.35,-108"/>
<text text-anchor="middle" x="294.35" y="-93" font-family="sans" font-size="10.00">gtdbtk</text>
<text text-anchor="middle" x="294.35" y="-82" font-family="sans" font-size="10.00">sample: shotgun_fahad</text>
</g>
<!-- 2&#45;&gt;0 -->
<g id="edge2" class="edge">
<title>2&#45;&gt;0</title>
<path fill="none" stroke="grey" stroke-width="2" d="M356.49,-74.73C361.17,-73.77 365.83,-72.85 370.35,-72 483,-50.85 617.38,-32.24 681.18,-23.8"/>
<polygon fill="grey" stroke="grey" stroke-width="2" points="681.71,-27.26 691.17,-22.49 680.8,-20.32 681.71,-27.26"/>
</g>
<!-- 3 -->
<g id="node4" class="node">
<title>3</title>
<path fill="none" stroke="#56d0d8" stroke-width="2" d="M602.35,-108C602.35,-108 572.35,-108 572.35,-108 566.35,-108 560.35,-102 560.35,-96 560.35,-96 560.35,-84 560.35,-84 560.35,-78 566.35,-72 572.35,-72 572.35,-72 602.35,-72 602.35,-72 608.35,-72 614.35,-78 614.35,-84 614.35,-84 614.35,-96 614.35,-96 614.35,-102 608.35,-108 602.35,-108"/>
<text text-anchor="middle" x="587.35" y="-87.5" font-family="sans" font-size="10.00">vamb</text>
</g>
<!-- 3&#45;&gt;0 -->
<g id="edge3" class="edge">
<title>3&#45;&gt;0</title>
<path fill="none" stroke="grey" stroke-width="2" d="M614.49,-74.5C634.16,-63.98 660.96,-49.66 682.41,-38.2"/>
<polygon fill="grey" stroke="grey" stroke-width="2" points="684.07,-41.29 691.24,-33.49 680.77,-35.11 684.07,-41.29"/>
</g>
<!-- 4 -->
<g id="node5" class="node">
<title>4</title>
<path fill="none" stroke="#56d85b" stroke-width="2" d="M479.35,-468C479.35,-468 441.35,-468 441.35,-468 435.35,-468 429.35,-462 429.35,-456 429.35,-456 429.35,-444 429.35,-444 429.35,-438 435.35,-432 441.35,-432 441.35,-432 479.35,-432 479.35,-432 485.35,-432 491.35,-438 491.35,-444 491.35,-444 491.35,-456 491.35,-456 491.35,-462 485.35,-468 479.35,-468"/>
<text text-anchor="middle" x="460.35" y="-453" font-family="sans" font-size="10.00">bioawk</text>
<text text-anchor="middle" x="460.35" y="-442" font-family="sans" font-size="10.00">m_num: 1</text>
</g>
<!-- 4&#45;&gt;3 -->
<g id="edge14" class="edge">
<title>4&#45;&gt;3</title>
<path fill="none" stroke="grey" stroke-width="2" d="M460.35,-431.95C460.35,-405.29 460.35,-352.11 460.35,-307 460.35,-307 460.35,-307 460.35,-233 460.35,-178.04 513.86,-134.6 551.42,-110.88"/>
<polygon fill="grey" stroke="grey" stroke-width="2" points="553.4,-113.77 560.1,-105.56 549.75,-107.8 553.4,-113.77"/>
</g>
<!-- 16 -->
<g id="node17" class="node">
<title>16</title>
<path fill="none" stroke="#d8a456" stroke-width="2" d="M544.35,-396C544.35,-396 500.35,-396 500.35,-396 494.35,-396 488.35,-390 488.35,-384 488.35,-384 488.35,-372 488.35,-372 488.35,-366 494.35,-360 500.35,-360 500.35,-360 544.35,-360 544.35,-360 550.35,-360 556.35,-366 556.35,-372 556.35,-372 556.35,-384 556.35,-384 556.35,-390 550.35,-396 544.35,-396"/>
<text text-anchor="middle" x="522.35" y="-375.5" font-family="sans" font-size="10.00">cat_contigs</text>
</g>
<!-- 4&#45;&gt;16 -->
<g id="edge32" class="edge">
<title>4&#45;&gt;16</title>
<path fill="none" stroke="grey" stroke-width="2" d="M475.67,-431.7C483.11,-423.3 492.17,-413.07 500.33,-403.86"/>
<polygon fill="grey" stroke="grey" stroke-width="2" points="503.19,-405.91 507.2,-396.1 497.95,-401.27 503.19,-405.91"/>
</g>
<!-- 32 -->
<g id="node33" class="node">
<title>32</title>
<path fill="none" stroke="#56d89a" stroke-width="2" d="M677.35,-396C677.35,-396 645.35,-396 645.35,-396 639.35,-396 633.35,-390 633.35,-384 633.35,-384 633.35,-372 633.35,-372 633.35,-366 639.35,-360 645.35,-360 645.35,-360 677.35,-360 677.35,-360 683.35,-360 689.35,-366 689.35,-372 689.35,-372 689.35,-384 689.35,-384 689.35,-390 683.35,-396 677.35,-396"/>
<text text-anchor="middle" x="661.35" y="-375.5" font-family="sans" font-size="10.00">maxbin2</text>
</g>
<!-- 4&#45;&gt;32 -->
<g id="edge53" class="edge">
<title>4&#45;&gt;32</title>
<path fill="none" stroke="grey" stroke-width="2" d="M491.75,-438.06C527.33,-425.67 585.29,-405.49 623.38,-392.22"/>
<polygon fill="grey" stroke="grey" stroke-width="2" points="624.79,-395.44 633.08,-388.84 622.49,-388.83 624.79,-395.44"/>
</g>
<!-- 34 -->
<g id="node35" class="node">
<title>34</title>
<path fill="none" stroke="#b6d856" stroke-width="2" d="M420.35,-396C420.35,-396 382.35,-396 382.35,-396 376.35,-396 370.35,-390 370.35,-384 370.35,-384 370.35,-372 370.35,-372 370.35,-366 376.35,-360 382.35,-360 382.35,-360 420.35,-360 420.35,-360 426.35,-360 432.35,-366 432.35,-372 432.35,-372 432.35,-384 432.35,-384 432.35,-390 426.35,-396 420.35,-396"/>
<text text-anchor="middle" x="401.35" y="-375.5" font-family="sans" font-size="10.00">metabat2</text>
</g>
<!-- 4&#45;&gt;34 -->
<g id="edge57" class="edge">
<title>4&#45;&gt;34</title>
<path fill="none" stroke="grey" stroke-width="2" d="M445.76,-431.7C438.69,-423.3 430.06,-413.07 422.3,-403.86"/>
<polygon fill="grey" stroke="grey" stroke-width="2" points="424.89,-401.49 415.76,-396.1 419.53,-406.01 424.89,-401.49"/>
</g>
<!-- 5 -->
<g id="node6" class="node">
<title>5</title>
<path fill="none" stroke="#78d856" stroke-width="2" d="M480.85,-540C480.85,-540 421.85,-540 421.85,-540 415.85,-540 409.85,-534 409.85,-528 409.85,-528 409.85,-516 409.85,-516 409.85,-510 415.85,-504 421.85,-504 421.85,-504 480.85,-504 480.85,-504 486.85,-504 492.85,-510 492.85,-516 492.85,-516 492.85,-528 492.85,-528 492.85,-534 486.85,-540 480.85,-540"/>
<text text-anchor="middle" x="451.35" y="-519.5" font-family="sans" font-size="10.00">medaka_stitch</text>
</g>
<!-- 5&#45;&gt;4 -->
<g id="edge16" class="edge">
<title>5&#45;&gt;4</title>
<path fill="none" stroke="grey" stroke-width="2" d="M453.57,-503.7C454.56,-495.98 455.76,-486.71 456.86,-478.11"/>
<polygon fill="grey" stroke="grey" stroke-width="2" points="460.34,-478.47 458.15,-468.1 453.4,-477.58 460.34,-478.47"/>
</g>
<!-- 36 -->
<g id="node37" class="node">
<title>36</title>
<path fill="none" stroke="#56a2d8" stroke-width="2" d="M223.85,-252C223.85,-252 192.85,-252 192.85,-252 186.85,-252 180.85,-246 180.85,-240 180.85,-240 180.85,-228 180.85,-228 180.85,-222 186.85,-216 192.85,-216 192.85,-216 223.85,-216 223.85,-216 229.85,-216 235.85,-222 235.85,-228 235.85,-228 235.85,-240 235.85,-240 235.85,-246 229.85,-252 223.85,-252"/>
<text text-anchor="middle" x="208.35" y="-231.5" font-family="sans" font-size="10.00">das_tool</text>
</g>
<!-- 5&#45;&gt;36 -->
<g id="edge62" class="edge">
<title>5&#45;&gt;36</title>
<path fill="none" stroke="grey" stroke-width="2" d="M409.76,-517.1C318.02,-506 99.18,-465.21 7.35,-324 -32.83,-262.22 101.95,-243.01 170.62,-237.29"/>
<polygon fill="grey" stroke="grey" stroke-width="2" points="170.94,-240.78 180.64,-236.51 170.4,-233.8 170.94,-240.78"/>
</g>
<!-- 6 -->
<g id="node7" class="node">
<title>6</title>
<path fill="none" stroke="#a7d856" stroke-width="2" d="M565.35,-612C565.35,-612 483.35,-612 483.35,-612 477.35,-612 471.35,-606 471.35,-600 471.35,-600 471.35,-588 471.35,-588 471.35,-582 477.35,-576 483.35,-576 483.35,-576 565.35,-576 565.35,-576 571.35,-576 577.35,-582 577.35,-588 577.35,-588 577.35,-600 577.35,-600 577.35,-606 571.35,-612 565.35,-612"/>
<text text-anchor="middle" x="524.35" y="-591.5" font-family="sans" font-size="10.00">medaka_consensus</text>
</g>
<!-- 6&#45;&gt;5 -->
<g id="edge17" class="edge">
<title>6&#45;&gt;5</title>
<path fill="none" stroke="grey" stroke-width="2" d="M506.3,-575.7C497.29,-567.05 486.23,-556.45 476.4,-547.03"/>
<polygon fill="grey" stroke="grey" stroke-width="2" points="478.83,-544.5 469.19,-540.1 473.98,-549.55 478.83,-544.5"/>
</g>
<!-- 7 -->
<g id="node8" class="node">
<title>7</title>
<path fill="none" stroke="#56d8c9" stroke-width="2" d="M552.35,-684C552.35,-684 496.35,-684 496.35,-684 490.35,-684 484.35,-678 484.35,-672 484.35,-672 484.35,-660 484.35,-660 484.35,-654 490.35,-648 496.35,-648 496.35,-648 552.35,-648 552.35,-648 558.35,-648 564.35,-654 564.35,-660 564.35,-660 564.35,-672 564.35,-672 564.35,-678 558.35,-684 552.35,-684"/>
<text text-anchor="middle" x="524.35" y="-663.5" font-family="sans" font-size="10.00">medaka_align</text>
</g>
<!-- 7&#45;&gt;6 -->
<g id="edge19" class="edge">
<title>7&#45;&gt;6</title>
<path fill="none" stroke="grey" stroke-width="2" d="M524.35,-647.7C524.35,-639.98 524.35,-630.71 524.35,-622.11"/>
<polygon fill="grey" stroke="grey" stroke-width="2" points="527.85,-622.1 524.35,-612.1 520.85,-622.1 527.85,-622.1"/>
</g>
<!-- 8 -->
<g id="node9" class="node">
<title>8</title>
<path fill="none" stroke="#61d856" stroke-width="2" d="M497.35,-756C497.35,-756 423.35,-756 423.35,-756 417.35,-756 411.35,-750 411.35,-744 411.35,-744 411.35,-732 411.35,-732 411.35,-726 417.35,-720 423.35,-720 423.35,-720 497.35,-720 497.35,-720 503.35,-720 509.35,-726 509.35,-732 509.35,-732 509.35,-744 509.35,-744 509.35,-750 503.35,-756 497.35,-756"/>
<text text-anchor="middle" x="460.35" y="-741" font-family="sans" font-size="10.00">minimap2_raconX</text>
<text text-anchor="middle" x="460.35" y="-730" font-family="sans" font-size="10.00">num: 3</text>
</g>
<!-- 8&#45;&gt;5 -->
<g id="edge18" class="edge">
<title>8&#45;&gt;5</title>
<path fill="none" stroke="grey" stroke-width="2" d="M459.63,-719.85C458.07,-682.83 454.38,-595.18 452.5,-550.39"/>
<polygon fill="grey" stroke="grey" stroke-width="2" points="455.99,-550.08 452.07,-540.23 449,-550.37 455.99,-550.08"/>
</g>
<!-- 8&#45;&gt;7 -->
<g id="edge20" class="edge">
<title>8&#45;&gt;7</title>
<path fill="none" stroke="grey" stroke-width="2" d="M476.17,-719.7C483.92,-711.22 493.39,-700.86 501.87,-691.58"/>
<polygon fill="grey" stroke="grey" stroke-width="2" points="504.55,-693.85 508.71,-684.1 499.38,-689.12 504.55,-693.85"/>
</g>
<!-- 9 -->
<g id="node10" class="node">
<title>9</title>
<path fill="none" stroke="#97d856" stroke-width="2" d="M467.35,-828C467.35,-828 437.35,-828 437.35,-828 431.35,-828 425.35,-822 425.35,-816 425.35,-816 425.35,-804 425.35,-804 425.35,-798 431.35,-792 437.35,-792 437.35,-792 467.35,-792 467.35,-792 473.35,-792 479.35,-798 479.35,-804 479.35,-804 479.35,-816 479.35,-816 479.35,-822 473.35,-828 467.35,-828"/>
<text text-anchor="middle" x="452.35" y="-807.5" font-family="sans" font-size="10.00">flye</text>
</g>
<!-- 9&#45;&gt;8 -->
<g id="edge22" class="edge">
<title>9&#45;&gt;8</title>
<path fill="none" stroke="grey" stroke-width="2" d="M454.33,-791.7C455.21,-783.98 456.27,-774.71 457.25,-766.11"/>
<polygon fill="grey" stroke="grey" stroke-width="2" points="460.73,-766.44 458.39,-756.1 453.78,-765.64 460.73,-766.44"/>
</g>
<!-- 10 -->
<g id="node11" class="node">
<title>10</title>
<path fill="none" stroke="#d6d856" stroke-width="2" d="M541.35,-900C541.35,-900 511.35,-900 511.35,-900 505.35,-900 499.35,-894 499.35,-888 499.35,-888 499.35,-876 499.35,-876 499.35,-870 505.35,-864 511.35,-864 511.35,-864 541.35,-864 541.35,-864 547.35,-864 553.35,-870 553.35,-876 553.35,-876 553.35,-888 553.35,-888 553.35,-894 547.35,-900 541.35,-900"/>
<text text-anchor="middle" x="526.35" y="-879.5" font-family="sans" font-size="10.00">nanofilt</text>
</g>
<!-- 10&#45;&gt;7 -->
<g id="edge21" class="edge">
<title>10&#45;&gt;7</title>
<path fill="none" stroke="grey" stroke-width="2" d="M526.19,-863.85C525.84,-826.83 525.02,-739.18 524.6,-694.39"/>
<polygon fill="grey" stroke="grey" stroke-width="2" points="528.1,-694.2 524.51,-684.23 521.1,-694.26 528.1,-694.2"/>
</g>
<!-- 10&#45;&gt;8 -->
<g id="edge23" class="edge">
<title>10&#45;&gt;8</title>
<path fill="none" stroke="grey" stroke-width="2" d="M519.48,-863.75C512.17,-845.68 500.06,-816.57 488.35,-792 484.12,-783.13 479.2,-773.59 474.67,-765.08"/>
<polygon fill="grey" stroke="grey" stroke-width="2" points="477.61,-763.15 469.79,-756 471.45,-766.47 477.61,-763.15"/>
</g>
<!-- 10&#45;&gt;9 -->
<g id="edge24" class="edge">
<title>10&#45;&gt;9</title>
<path fill="none" stroke="grey" stroke-width="2" d="M508.06,-863.7C498.92,-855.05 487.71,-844.45 477.75,-835.03"/>
<polygon fill="grey" stroke="grey" stroke-width="2" points="480.1,-832.43 470.43,-828.1 475.29,-837.52 480.1,-832.43"/>
</g>
<!-- 14 -->
<g id="node15" class="node">
<title>14</title>
<path fill="none" stroke="#5663d8" stroke-width="2" d="M603.35,-252C603.35,-252 571.35,-252 571.35,-252 565.35,-252 559.35,-246 559.35,-240 559.35,-240 559.35,-228 559.35,-228 559.35,-222 565.35,-216 571.35,-216 571.35,-216 603.35,-216 603.35,-216 609.35,-216 615.35,-222 615.35,-228 615.35,-228 615.35,-240 615.35,-240 615.35,-246 609.35,-252 603.35,-252"/>
<text text-anchor="middle" x="587.35" y="-231.5" font-family="sans" font-size="10.00">minimap</text>
</g>
<!-- 10&#45;&gt;14 -->
<g id="edge28" class="edge">
<title>10&#45;&gt;14</title>
<path fill="none" stroke="grey" stroke-width="2" d="M543.49,-863.89C566.72,-838.8 605.35,-789.5 605.35,-739 605.35,-739 605.35,-739 605.35,-449 605.35,-413 633.93,-322.41 623.35,-288 620.34,-278.22 614.84,-268.62 609.03,-260.33"/>
<polygon fill="grey" stroke="grey" stroke-width="2" points="611.76,-258.13 602.96,-252.23 606.15,-262.33 611.76,-258.13"/>
</g>
<!-- 10&#45;&gt;32 -->
<g id="edge54" class="edge">
<title>10&#45;&gt;32</title>
<path fill="none" stroke="grey" stroke-width="2" d="M553.37,-866.97C579.17,-853.35 614.77,-833.92 619.35,-828 644.4,-795.59 643.35,-779.97 643.35,-739 643.35,-739 643.35,-739 643.35,-521 643.35,-480.9 650.5,-434.92 655.79,-406.42"/>
<polygon fill="grey" stroke="grey" stroke-width="2" points="659.26,-406.88 657.71,-396.4 652.39,-405.56 659.26,-406.88"/>
</g>
<!-- 44 -->
<g id="node45" class="node">
<title>44</title>
<path fill="none" stroke="#d8ac56" stroke-width="2" d="M714.35,-684C714.35,-684 684.35,-684 684.35,-684 678.35,-684 672.35,-678 672.35,-672 672.35,-672 672.35,-660 672.35,-660 672.35,-654 678.35,-648 684.35,-648 684.35,-648 714.35,-648 714.35,-648 720.35,-648 726.35,-654 726.35,-660 726.35,-660 726.35,-672 726.35,-672 726.35,-678 720.35,-684 714.35,-684"/>
<text text-anchor="middle" x="699.35" y="-663.5" font-family="sans" font-size="10.00">coverm</text>
</g>
<!-- 10&#45;&gt;44 -->
<g id="edge69" class="edge">
<title>10&#45;&gt;44</title>
<path fill="none" stroke="grey" stroke-width="2" d="M553.37,-867.96C556.38,-866.59 559.42,-865.24 562.35,-864 603.91,-846.35 627.17,-861.59 657.35,-828 690.94,-790.61 698.27,-729.67 699.52,-694.46"/>
<polygon fill="grey" stroke="grey" stroke-width="2" points="703.02,-694.49 699.73,-684.42 696.02,-694.34 703.02,-694.49"/>
</g>
<!-- 11 -->
<g id="node12" class="node">
<title>11</title>
<path fill="none" stroke="#56d88a" stroke-width="2" d="M555.35,-972C555.35,-972 463.35,-972 463.35,-972 457.35,-972 451.35,-966 451.35,-960 451.35,-960 451.35,-948 451.35,-948 451.35,-942 457.35,-936 463.35,-936 463.35,-936 555.35,-936 555.35,-936 561.35,-936 567.35,-942 567.35,-948 567.35,-948 567.35,-960 567.35,-960 567.35,-966 561.35,-972 555.35,-972"/>
<text text-anchor="middle" x="509.35" y="-957" font-family="sans" font-size="10.00">porechop</text>
<text text-anchor="middle" x="509.35" y="-946" font-family="sans" font-size="10.00">sample: shotgun_new</text>
</g>
<!-- 11&#45;&gt;10 -->
<g id="edge25" class="edge">
<title>11&#45;&gt;10</title>
<path fill="none" stroke="grey" stroke-width="2" d="M513.55,-935.7C515.44,-927.9 517.72,-918.51 519.83,-909.83"/>
<polygon fill="grey" stroke="grey" stroke-width="2" points="523.24,-910.65 522.19,-900.1 516.43,-909 523.24,-910.65"/>
</g>
<!-- 12 -->
<g id="node13" class="node">
<title>12</title>
<path fill="none" stroke="#70d856" stroke-width="2" d="M731.35,-1044C731.35,-1044 663.35,-1044 663.35,-1044 657.35,-1044 651.35,-1038 651.35,-1032 651.35,-1032 651.35,-1020 651.35,-1020 651.35,-1014 657.35,-1008 663.35,-1008 663.35,-1008 731.35,-1008 731.35,-1008 737.35,-1008 743.35,-1014 743.35,-1020 743.35,-1020 743.35,-1032 743.35,-1032 743.35,-1038 737.35,-1044 731.35,-1044"/>
<text text-anchor="middle" x="697.35" y="-1023.5" font-family="sans" font-size="10.00">guppy_barcoder</text>
</g>
<!-- 12&#45;&gt;11 -->
<g id="edge26" class="edge">
<title>12&#45;&gt;11</title>
<path fill="none" stroke="grey" stroke-width="2" d="M651.36,-1007.88C625.2,-998.14 592.26,-985.87 564.7,-975.61"/>
<polygon fill="grey" stroke="grey" stroke-width="2" points="565.78,-972.28 555.19,-972.07 563.34,-978.84 565.78,-972.28"/>
</g>
<!-- 58 -->
<g id="node59" class="node">
<title>58</title>
<path fill="none" stroke="#56d88a" stroke-width="2" d="M676.85,-972C676.85,-972 597.85,-972 597.85,-972 591.85,-972 585.85,-966 585.85,-960 585.85,-960 585.85,-948 585.85,-948 585.85,-942 591.85,-936 597.85,-936 597.85,-936 676.85,-936 676.85,-936 682.85,-936 688.85,-942 688.85,-948 688.85,-948 688.85,-960 688.85,-960 688.85,-966 682.85,-972 676.85,-972"/>
<text text-anchor="middle" x="637.35" y="-957" font-family="sans" font-size="10.00">porechop</text>
<text text-anchor="middle" x="637.35" y="-946" font-family="sans" font-size="10.00">sample: BC04_new</text>
</g>
<!-- 12&#45;&gt;58 -->
<g id="edge85" class="edge">
<title>12&#45;&gt;58</title>
<path fill="none" stroke="grey" stroke-width="2" d="M682.52,-1007.7C675.32,-999.3 666.55,-989.07 658.66,-979.86"/>
<polygon fill="grey" stroke="grey" stroke-width="2" points="661.17,-977.42 652.01,-972.1 655.86,-981.97 661.17,-977.42"/>
</g>
<!-- 61 -->
<g id="node62" class="node">
<title>61</title>
<path fill="none" stroke="#56d88a" stroke-width="2" d="M797.85,-972C797.85,-972 718.85,-972 718.85,-972 712.85,-972 706.85,-966 706.85,-960 706.85,-960 706.85,-948 706.85,-948 706.85,-942 712.85,-936 718.85,-936 718.85,-936 797.85,-936 797.85,-936 803.85,-936 809.85,-942 809.85,-948 809.85,-948 809.85,-960 809.85,-960 809.85,-966 803.85,-972 797.85,-972"/>
<text text-anchor="middle" x="758.35" y="-957" font-family="sans" font-size="10.00">porechop</text>
<text text-anchor="middle" x="758.35" y="-946" font-family="sans" font-size="10.00">sample: BC02_new</text>
</g>
<!-- 12&#45;&gt;61 -->
<g id="edge88" class="edge">
<title>12&#45;&gt;61</title>
<path fill="none" stroke="grey" stroke-width="2" d="M712.43,-1007.7C719.74,-999.3 728.66,-989.07 736.68,-979.86"/>
<polygon fill="grey" stroke="grey" stroke-width="2" points="739.51,-981.94 743.44,-972.1 734.23,-977.34 739.51,-981.94"/>
</g>
<!-- 64 -->
<g id="node65" class="node">
<title>64</title>
<path fill="none" stroke="#56d88a" stroke-width="2" d="M922.85,-972C922.85,-972 843.85,-972 843.85,-972 837.85,-972 831.85,-966 831.85,-960 831.85,-960 831.85,-948 831.85,-948 831.85,-942 837.85,-936 843.85,-936 843.85,-936 922.85,-936 922.85,-936 928.85,-936 934.85,-942 934.85,-948 934.85,-948 934.85,-960 934.85,-960 934.85,-966 928.85,-972 922.85,-972"/>
<text text-anchor="middle" x="883.35" y="-957" font-family="sans" font-size="10.00">porechop</text>
<text text-anchor="middle" x="883.35" y="-946" font-family="sans" font-size="10.00">sample: BC03_new</text>
</g>
<!-- 12&#45;&gt;64 -->
<g id="edge91" class="edge">
<title>12&#45;&gt;64</title>
<path fill="none" stroke="grey" stroke-width="2" d="M742.85,-1007.88C768.73,-998.14 801.32,-985.87 828.59,-975.61"/>
<polygon fill="grey" stroke="grey" stroke-width="2" points="829.87,-978.87 837.99,-972.07 827.4,-972.31 829.87,-978.87"/>
</g>
<!-- 13 -->
<g id="node14" class="node">
<title>13</title>
<path fill="none" stroke="#d8cb56" stroke-width="2" d="M602.35,-180C602.35,-180 572.35,-180 572.35,-180 566.35,-180 560.35,-174 560.35,-168 560.35,-168 560.35,-156 560.35,-156 560.35,-150 566.35,-144 572.35,-144 572.35,-144 602.35,-144 602.35,-144 608.35,-144 614.35,-150 614.35,-156 614.35,-156 614.35,-168 614.35,-168 614.35,-174 608.35,-180 602.35,-180"/>
<text text-anchor="middle" x="587.35" y="-159.5" font-family="sans" font-size="10.00">sort</text>
</g>
<!-- 13&#45;&gt;3 -->
<g id="edge15" class="edge">
<title>13&#45;&gt;3</title>
<path fill="none" stroke="grey" stroke-width="2" d="M587.35,-143.7C587.35,-135.98 587.35,-126.71 587.35,-118.11"/>
<polygon fill="grey" stroke="grey" stroke-width="2" points="590.85,-118.1 587.35,-108.1 583.85,-118.1 590.85,-118.1"/>
</g>
<!-- 14&#45;&gt;13 -->
<g id="edge27" class="edge">
<title>14&#45;&gt;13</title>
<path fill="none" stroke="grey" stroke-width="2" d="M587.35,-215.7C587.35,-207.98 587.35,-198.71 587.35,-190.11"/>
<polygon fill="grey" stroke="grey" stroke-width="2" points="590.85,-190.1 587.35,-180.1 583.85,-190.1 590.85,-190.1"/>
</g>
<!-- 15 -->
<g id="node16" class="node">
<title>15</title>
<path fill="none" stroke="#56d8b9" stroke-width="2" d="M602.35,-324C602.35,-324 572.35,-324 572.35,-324 566.35,-324 560.35,-318 560.35,-312 560.35,-312 560.35,-300 560.35,-300 560.35,-294 566.35,-288 572.35,-288 572.35,-288 602.35,-288 602.35,-288 608.35,-288 614.35,-294 614.35,-300 614.35,-300 614.35,-312 614.35,-312 614.35,-318 608.35,-324 602.35,-324"/>
<text text-anchor="middle" x="587.35" y="-303.5" font-family="sans" font-size="10.00">index</text>
</g>
<!-- 15&#45;&gt;14 -->
<g id="edge29" class="edge">
<title>15&#45;&gt;14</title>
<path fill="none" stroke="grey" stroke-width="2" d="M587.35,-287.7C587.35,-279.98 587.35,-270.71 587.35,-262.11"/>
<polygon fill="grey" stroke="grey" stroke-width="2" points="590.85,-262.1 587.35,-252.1 583.85,-262.1 590.85,-262.1"/>
</g>
<!-- 16&#45;&gt;15 -->
<g id="edge31" class="edge">
<title>16&#45;&gt;15</title>
<path fill="none" stroke="grey" stroke-width="2" d="M538.42,-359.7C546.29,-351.22 555.9,-340.86 564.52,-331.58"/>
<polygon fill="grey" stroke="grey" stroke-width="2" points="567.23,-333.81 571.47,-324.1 562.1,-329.05 567.23,-333.81"/>
</g>
<!-- 17 -->
<g id="node18" class="node">
<title>17</title>
<path fill="none" stroke="#5682d8" stroke-width="2" d="M530.35,-324C530.35,-324 500.35,-324 500.35,-324 494.35,-324 488.35,-318 488.35,-312 488.35,-312 488.35,-300 488.35,-300 488.35,-294 494.35,-288 500.35,-288 500.35,-288 530.35,-288 530.35,-288 536.35,-288 542.35,-294 542.35,-300 542.35,-300 542.35,-312 542.35,-312 542.35,-318 536.35,-324 530.35,-324"/>
<text text-anchor="middle" x="515.35" y="-303.5" font-family="sans" font-size="10.00">dict</text>
</g>
<!-- 16&#45;&gt;17 -->
<g id="edge33" class="edge">
<title>16&#45;&gt;17</title>
<path fill="none" stroke="grey" stroke-width="2" d="M520.62,-359.7C519.85,-351.98 518.92,-342.71 518.06,-334.11"/>
<polygon fill="grey" stroke="grey" stroke-width="2" points="521.54,-333.71 517.06,-324.1 514.57,-334.4 521.54,-333.71"/>
</g>
<!-- 17&#45;&gt;14 -->
<g id="edge30" class="edge">
<title>17&#45;&gt;14</title>
<path fill="none" stroke="grey" stroke-width="2" d="M533.15,-287.7C541.95,-279.14 552.73,-268.66 562.35,-259.3"/>
<polygon fill="grey" stroke="grey" stroke-width="2" points="565.02,-261.58 569.75,-252.1 560.15,-256.57 565.02,-261.58"/>
</g>
<!-- 18 -->
<g id="node19" class="node">
<title>18</title>
<path fill="none" stroke="#56d0d8" stroke-width="2" d="M1316.35,-108C1316.35,-108 1286.35,-108 1286.35,-108 1280.35,-108 1274.35,-102 1274.35,-96 1274.35,-96 1274.35,-84 1274.35,-84 1274.35,-78 1280.35,-72 1286.35,-72 1286.35,-72 1316.35,-72 1316.35,-72 1322.35,-72 1328.35,-78 1328.35,-84 1328.35,-84 1328.35,-96 1328.35,-96 1328.35,-102 1322.35,-108 1316.35,-108"/>
<text text-anchor="middle" x="1301.35" y="-87.5" font-family="sans" font-size="10.00">vamb</text>
</g>
<!-- 18&#45;&gt;0 -->
<g id="edge4" class="edge">
<title>18&#45;&gt;0</title>
<path fill="none" stroke="grey" stroke-width="2" d="M1273.96,-76.86C1268.85,-74.98 1263.5,-73.24 1258.35,-72 1073.36,-27.29 844.02,-20.14 755.56,-19.11"/>
<polygon fill="grey" stroke="grey" stroke-width="2" points="755.51,-15.61 745.48,-19.01 755.44,-22.61 755.51,-15.61"/>
</g>
<!-- 19 -->
<g id="node20" class="node">
<title>19</title>
<path fill="none" stroke="#56d85b" stroke-width="2" d="M1330.35,-468C1330.35,-468 1292.35,-468 1292.35,-468 1286.35,-468 1280.35,-462 1280.35,-456 1280.35,-456 1280.35,-444 1280.35,-444 1280.35,-438 1286.35,-432 1292.35,-432 1292.35,-432 1330.35,-432 1330.35,-432 1336.35,-432 1342.35,-438 1342.35,-444 1342.35,-444 1342.35,-456 1342.35,-456 1342.35,-462 1336.35,-468 1330.35,-468"/>
<text text-anchor="middle" x="1311.35" y="-453" font-family="sans" font-size="10.00">bioawk</text>
<text text-anchor="middle" x="1311.35" y="-442" font-family="sans" font-size="10.00">m_num: 1</text>
</g>
<!-- 19&#45;&gt;18 -->
<g id="edge34" class="edge">
<title>19&#45;&gt;18</title>
<path fill="none" stroke="grey" stroke-width="2" d="M1309.37,-431.98C1306.46,-405.36 1301.35,-352.23 1301.35,-307 1301.35,-307 1301.35,-307 1301.35,-233 1301.35,-193 1301.35,-146.65 1301.35,-118.08"/>
<polygon fill="grey" stroke="grey" stroke-width="2" points="1304.85,-118.05 1301.35,-108.05 1297.85,-118.05 1304.85,-118.05"/>
</g>
<!-- 30 -->
<g id="node31" class="node">
<title>30</title>
<path fill="none" stroke="#d8a456" stroke-width="2" d="M1385.35,-396C1385.35,-396 1341.35,-396 1341.35,-396 1335.35,-396 1329.35,-390 1329.35,-384 1329.35,-384 1329.35,-372 1329.35,-372 1329.35,-366 1335.35,-360 1341.35,-360 1341.35,-360 1385.35,-360 1385.35,-360 1391.35,-360 1397.35,-366 1397.35,-372 1397.35,-372 1397.35,-384 1397.35,-384 1397.35,-390 1391.35,-396 1385.35,-396"/>
<text text-anchor="middle" x="1363.35" y="-375.5" font-family="sans" font-size="10.00">cat_contigs</text>
</g>
<!-- 19&#45;&gt;30 -->
<g id="edge51" class="edge">
<title>19&#45;&gt;30</title>
<path fill="none" stroke="grey" stroke-width="2" d="M1324.2,-431.7C1330.37,-423.39 1337.88,-413.28 1344.67,-404.14"/>
<polygon fill="grey" stroke="grey" stroke-width="2" points="1347.49,-406.22 1350.64,-396.1 1341.87,-402.04 1347.49,-406.22"/>
</g>
<!-- 33 -->
<g id="node34" class="node">
<title>33</title>
<path fill="none" stroke="#56d89a" stroke-width="2" d="M1555.35,-396C1555.35,-396 1523.35,-396 1523.35,-396 1517.35,-396 1511.35,-390 1511.35,-384 1511.35,-384 1511.35,-372 1511.35,-372 1511.35,-366 1517.35,-360 1523.35,-360 1523.35,-360 1555.35,-360 1555.35,-360 1561.35,-360 1567.35,-366 1567.35,-372 1567.35,-372 1567.35,-384 1567.35,-384 1567.35,-390 1561.35,-396 1555.35,-396"/>
<text text-anchor="middle" x="1539.35" y="-375.5" font-family="sans" font-size="10.00">maxbin2</text>
</g>
<!-- 19&#45;&gt;33 -->
<g id="edge55" class="edge">
<title>19&#45;&gt;33</title>
<path fill="none" stroke="grey" stroke-width="2" d="M1342.57,-439.41C1383.96,-426.71 1456.92,-404.31 1501.43,-390.64"/>
<polygon fill="grey" stroke="grey" stroke-width="2" points="1502.48,-393.98 1511.01,-387.7 1500.42,-387.29 1502.48,-393.98"/>
</g>
<!-- 35 -->
<g id="node36" class="node">
<title>35</title>
<path fill="none" stroke="#b6d856" stroke-width="2" d="M1261.35,-396C1261.35,-396 1223.35,-396 1223.35,-396 1217.35,-396 1211.35,-390 1211.35,-384 1211.35,-384 1211.35,-372 1211.35,-372 1211.35,-366 1217.35,-360 1223.35,-360 1223.35,-360 1261.35,-360 1261.35,-360 1267.35,-360 1273.35,-366 1273.35,-372 1273.35,-372 1273.35,-384 1273.35,-384 1273.35,-390 1267.35,-396 1261.35,-396"/>
<text text-anchor="middle" x="1242.35" y="-375.5" font-family="sans" font-size="10.00">metabat2</text>
</g>
<!-- 19&#45;&gt;35 -->
<g id="edge58" class="edge">
<title>19&#45;&gt;35</title>
<path fill="none" stroke="grey" stroke-width="2" d="M1294.29,-431.7C1285.85,-423.14 1275.52,-412.66 1266.31,-403.3"/>
<polygon fill="grey" stroke="grey" stroke-width="2" points="1268.72,-400.77 1259.21,-396.1 1263.74,-405.68 1268.72,-400.77"/>
</g>
<!-- 20 -->
<g id="node21" class="node">
<title>20</title>
<path fill="none" stroke="#78d856" stroke-width="2" d="M1340.85,-540C1340.85,-540 1281.85,-540 1281.85,-540 1275.85,-540 1269.85,-534 1269.85,-528 1269.85,-528 1269.85,-516 1269.85,-516 1269.85,-510 1275.85,-504 1281.85,-504 1281.85,-504 1340.85,-504 1340.85,-504 1346.85,-504 1352.85,-510 1352.85,-516 1352.85,-516 1352.85,-528 1352.85,-528 1352.85,-534 1346.85,-540 1340.85,-540"/>
<text text-anchor="middle" x="1311.35" y="-519.5" font-family="sans" font-size="10.00">medaka_stitch</text>
</g>
<!-- 20&#45;&gt;19 -->
<g id="edge36" class="edge">
<title>20&#45;&gt;19</title>
<path fill="none" stroke="grey" stroke-width="2" d="M1311.35,-503.7C1311.35,-495.98 1311.35,-486.71 1311.35,-478.11"/>
<polygon fill="grey" stroke="grey" stroke-width="2" points="1314.85,-478.1 1311.35,-468.1 1307.85,-478.1 1314.85,-478.1"/>
</g>
<!-- 40 -->
<g id="node41" class="node">
<title>40</title>
<path fill="none" stroke="#56a2d8" stroke-width="2" d="M899.85,-252C899.85,-252 868.85,-252 868.85,-252 862.85,-252 856.85,-246 856.85,-240 856.85,-240 856.85,-228 856.85,-228 856.85,-222 862.85,-216 868.85,-216 868.85,-216 899.85,-216 899.85,-216 905.85,-216 911.85,-222 911.85,-228 911.85,-228 911.85,-240 911.85,-240 911.85,-246 905.85,-252 899.85,-252"/>
<text text-anchor="middle" x="884.35" y="-231.5" font-family="sans" font-size="10.00">das_tool</text>
</g>
<!-- 20&#45;&gt;40 -->
<g id="edge67" class="edge">
<title>20&#45;&gt;40</title>
<path fill="none" stroke="grey" stroke-width="2" d="M1269.8,-519.24C1170.43,-512.5 919.46,-480.09 813.35,-324 804.35,-310.77 806.18,-302.3 813.35,-288 820.76,-273.22 834.46,-261.51 847.86,-252.9"/>
<polygon fill="grey" stroke="grey" stroke-width="2" points="849.78,-255.83 856.56,-247.68 846.18,-249.83 849.78,-255.83"/>
</g>
<!-- 21 -->
<g id="node22" class="node">
<title>21</title>
<path fill="none" stroke="#a7d856" stroke-width="2" d="M1433.35,-612C1433.35,-612 1351.35,-612 1351.35,-612 1345.35,-612 1339.35,-606 1339.35,-600 1339.35,-600 1339.35,-588 1339.35,-588 1339.35,-582 1345.35,-576 1351.35,-576 1351.35,-576 1433.35,-576 1433.35,-576 1439.35,-576 1445.35,-582 1445.35,-588 1445.35,-588 1445.35,-600 1445.35,-600 1445.35,-606 1439.35,-612 1433.35,-612"/>
<text text-anchor="middle" x="1392.35" y="-591.5" font-family="sans" font-size="10.00">medaka_consensus</text>
</g>
<!-- 21&#45;&gt;20 -->
<g id="edge37" class="edge">
<title>21&#45;&gt;20</title>
<path fill="none" stroke="grey" stroke-width="2" d="M1372.33,-575.7C1362.22,-566.97 1349.81,-556.24 1338.83,-546.75"/>
<polygon fill="grey" stroke="grey" stroke-width="2" points="1340.99,-543.99 1331.14,-540.1 1336.42,-549.29 1340.99,-543.99"/>
</g>
<!-- 22 -->
<g id="node23" class="node">
<title>22</title>
<path fill="none" stroke="#56d8c9" stroke-width="2" d="M1420.35,-684C1420.35,-684 1364.35,-684 1364.35,-684 1358.35,-684 1352.35,-678 1352.35,-672 1352.35,-672 1352.35,-660 1352.35,-660 1352.35,-654 1358.35,-648 1364.35,-648 1364.35,-648 1420.35,-648 1420.35,-648 1426.35,-648 1432.35,-654 1432.35,-660 1432.35,-660 1432.35,-672 1432.35,-672 1432.35,-678 1426.35,-684 1420.35,-684"/>
<text text-anchor="middle" x="1392.35" y="-663.5" font-family="sans" font-size="10.00">medaka_align</text>
</g>
<!-- 22&#45;&gt;21 -->
<g id="edge39" class="edge">
<title>22&#45;&gt;21</title>
<path fill="none" stroke="grey" stroke-width="2" d="M1392.35,-647.7C1392.35,-639.98 1392.35,-630.71 1392.35,-622.11"/>
<polygon fill="grey" stroke="grey" stroke-width="2" points="1395.85,-622.1 1392.35,-612.1 1388.85,-622.1 1395.85,-622.1"/>
</g>
<!-- 23 -->
<g id="node24" class="node">
<title>23</title>
<path fill="none" stroke="#61d856" stroke-width="2" d="M1397.35,-756C1397.35,-756 1323.35,-756 1323.35,-756 1317.35,-756 1311.35,-750 1311.35,-744 1311.35,-744 1311.35,-732 1311.35,-732 1311.35,-726 1317.35,-720 1323.35,-720 1323.35,-720 1397.35,-720 1397.35,-720 1403.35,-720 1409.35,-726 1409.35,-732 1409.35,-732 1409.35,-744 1409.35,-744 1409.35,-750 1403.35,-756 1397.35,-756"/>
<text text-anchor="middle" x="1360.35" y="-741" font-family="sans" font-size="10.00">minimap2_raconX</text>
<text text-anchor="middle" x="1360.35" y="-730" font-family="sans" font-size="10.00">num: 3</text>
</g>
<!-- 23&#45;&gt;20 -->
<g id="edge38" class="edge">
<title>23&#45;&gt;20</title>
<path fill="none" stroke="grey" stroke-width="2" d="M1354.33,-719.96C1350.83,-709.64 1346.5,-696.16 1343.35,-684 1331.29,-637.4 1321.21,-582.21 1315.75,-550.04"/>
<polygon fill="grey" stroke="grey" stroke-width="2" points="1319.18,-549.35 1314.08,-540.07 1312.28,-550.51 1319.18,-549.35"/>
</g>
<!-- 23&#45;&gt;22 -->
<g id="edge40" class="edge">
<title>23&#45;&gt;22</title>
<path fill="none" stroke="grey" stroke-width="2" d="M1368.26,-719.7C1371.9,-711.73 1376.3,-702.1 1380.34,-693.26"/>
<polygon fill="grey" stroke="grey" stroke-width="2" points="1383.55,-694.65 1384.53,-684.1 1377.19,-691.74 1383.55,-694.65"/>
</g>
<!-- 24 -->
<g id="node25" class="node">
<title>24</title>
<path fill="none" stroke="#97d856" stroke-width="2" d="M1367.35,-828C1367.35,-828 1337.35,-828 1337.35,-828 1331.35,-828 1325.35,-822 1325.35,-816 1325.35,-816 1325.35,-804 1325.35,-804 1325.35,-798 1331.35,-792 1337.35,-792 1337.35,-792 1367.35,-792 1367.35,-792 1373.35,-792 1379.35,-798 1379.35,-804 1379.35,-804 1379.35,-816 1379.35,-816 1379.35,-822 1373.35,-828 1367.35,-828"/>
<text text-anchor="middle" x="1352.35" y="-807.5" font-family="sans" font-size="10.00">flye</text>
</g>
<!-- 24&#45;&gt;23 -->
<g id="edge42" class="edge">
<title>24&#45;&gt;23</title>
<path fill="none" stroke="grey" stroke-width="2" d="M1354.33,-791.7C1355.21,-783.98 1356.27,-774.71 1357.25,-766.11"/>
<polygon fill="grey" stroke="grey" stroke-width="2" points="1360.73,-766.44 1358.39,-756.1 1353.78,-765.64 1360.73,-766.44"/>
</g>
<!-- 25 -->
<g id="node26" class="node">
<title>25</title>
<path fill="none" stroke="#d6d856" stroke-width="2" d="M1556.35,-900C1556.35,-900 1526.35,-900 1526.35,-900 1520.35,-900 1514.35,-894 1514.35,-888 1514.35,-888 1514.35,-876 1514.35,-876 1514.35,-870 1520.35,-864 1526.35,-864 1526.35,-864 1556.35,-864 1556.35,-864 1562.35,-864 1568.35,-870 1568.35,-876 1568.35,-876 1568.35,-888 1568.35,-888 1568.35,-894 1562.35,-900 1556.35,-900"/>
<text text-anchor="middle" x="1541.35" y="-879.5" font-family="sans" font-size="10.00">nanofilt</text>
</g>
<!-- 25&#45;&gt;22 -->
<g id="edge41" class="edge">
<title>25&#45;&gt;22</title>
<path fill="none" stroke="grey" stroke-width="2" d="M1514.12,-865.56C1499.41,-856.17 1481.78,-843.1 1469.35,-828 1435.61,-787.02 1441.37,-767.83 1418.35,-720 1414.15,-711.28 1409.51,-701.78 1405.33,-693.26"/>
<polygon fill="grey" stroke="grey" stroke-width="2" points="1408.4,-691.58 1400.84,-684.15 1402.12,-694.67 1408.4,-691.58"/>
</g>
<!-- 25&#45;&gt;23 -->
<g id="edge43" class="edge">
<title>25&#45;&gt;23</title>
<path fill="none" stroke="grey" stroke-width="2" d="M1514.19,-868.29C1482.78,-853.52 1434.89,-830.83 1431.35,-828 1409.07,-810.23 1389.37,-784.25 1376.4,-764.94"/>
<polygon fill="grey" stroke="grey" stroke-width="2" points="1379.17,-762.78 1370.77,-756.33 1373.31,-766.61 1379.17,-762.78"/>
</g>
<!-- 25&#45;&gt;24 -->
<g id="edge44" class="edge">
<title>25&#45;&gt;24</title>
<path fill="none" stroke="grey" stroke-width="2" d="M1514.02,-868.01C1510.79,-866.6 1507.51,-865.23 1504.35,-864 1456.04,-845.14 1442.01,-845.95 1393.35,-828 1391.95,-827.48 1390.52,-826.95 1389.09,-826.4"/>
<polygon fill="grey" stroke="grey" stroke-width="2" points="1390.16,-823.06 1379.58,-822.64 1387.59,-829.57 1390.16,-823.06"/>
</g>
<!-- 28 -->
<g id="node29" class="node">
<title>28</title>
<path fill="none" stroke="#5663d8" stroke-width="2" d="M1426.35,-252C1426.35,-252 1394.35,-252 1394.35,-252 1388.35,-252 1382.35,-246 1382.35,-240 1382.35,-240 1382.35,-228 1382.35,-228 1382.35,-222 1388.35,-216 1394.35,-216 1394.35,-216 1426.35,-216 1426.35,-216 1432.35,-216 1438.35,-222 1438.35,-228 1438.35,-228 1438.35,-240 1438.35,-240 1438.35,-246 1432.35,-252 1426.35,-252"/>
<text text-anchor="middle" x="1410.35" y="-231.5" font-family="sans" font-size="10.00">minimap</text>
</g>
<!-- 25&#45;&gt;28 -->
<g id="edge47" class="edge">
<title>25&#45;&gt;28</title>
<path fill="none" stroke="grey" stroke-width="2" d="M1529.33,-863.99C1512.34,-838.23 1483.35,-787.2 1483.35,-739 1483.35,-739 1483.35,-739 1483.35,-377 1483.35,-336.55 1483.83,-323.45 1464.35,-288 1458.43,-277.23 1449.62,-267.25 1440.82,-258.92"/>
<polygon fill="grey" stroke="grey" stroke-width="2" points="1442.95,-256.13 1433.17,-252.05 1438.28,-261.34 1442.95,-256.13"/>
</g>
<!-- 25&#45;&gt;33 -->
<g id="edge56" class="edge">
<title>25&#45;&gt;33</title>
<path fill="none" stroke="grey" stroke-width="2" d="M1541.15,-863.95C1540.86,-837.29 1540.35,-784.12 1540.35,-739 1540.35,-739 1540.35,-739 1540.35,-521 1540.35,-481 1539.95,-434.65 1539.65,-406.08"/>
<polygon fill="grey" stroke="grey" stroke-width="2" points="1543.15,-406.01 1539.55,-396.05 1536.15,-406.09 1543.15,-406.01"/>
</g>
<!-- 45 -->
<g id="node46" class="node">
<title>45</title>
<path fill="none" stroke="#d8ac56" stroke-width="2" d="M1610.35,-612C1610.35,-612 1580.35,-612 1580.35,-612 1574.35,-612 1568.35,-606 1568.35,-600 1568.35,-600 1568.35,-588 1568.35,-588 1568.35,-582 1574.35,-576 1580.35,-576 1580.35,-576 1610.35,-576 1610.35,-576 1616.35,-576 1622.35,-582 1622.35,-588 1622.35,-588 1622.35,-600 1622.35,-600 1622.35,-606 1616.35,-612 1610.35,-612"/>
<text text-anchor="middle" x="1595.35" y="-591.5" font-family="sans" font-size="10.00">coverm</text>
</g>
<!-- 25&#45;&gt;45 -->
<g id="edge70" class="edge">
<title>25&#45;&gt;45</title>
<path fill="none" stroke="grey" stroke-width="2" d="M1545.85,-863.88C1548.5,-853.53 1551.81,-840.05 1554.35,-828 1569.94,-753.89 1584.34,-665.67 1591.18,-622.11"/>
<polygon fill="grey" stroke="grey" stroke-width="2" points="1594.67,-622.45 1592.75,-612.03 1587.75,-621.37 1594.67,-622.45"/>
</g>
<!-- 26 -->
<g id="node27" class="node">
<title>26</title>
<path fill="none" stroke="#56d88a" stroke-width="2" d="M1617.35,-972C1617.35,-972 1517.35,-972 1517.35,-972 1511.35,-972 1505.35,-966 1505.35,-960 1505.35,-960 1505.35,-948 1505.35,-948 1505.35,-942 1511.35,-936 1517.35,-936 1517.35,-936 1617.35,-936 1617.35,-936 1623.35,-936 1629.35,-942 1629.35,-948 1629.35,-948 1629.35,-960 1629.35,-960 1629.35,-966 1623.35,-972 1617.35,-972"/>
<text text-anchor="middle" x="1567.35" y="-957" font-family="sans" font-size="10.00">porechop</text>
<text text-anchor="middle" x="1567.35" y="-946" font-family="sans" font-size="10.00">sample: shotgun_fahad</text>
</g>
<!-- 26&#45;&gt;25 -->
<g id="edge45" class="edge">
<title>26&#45;&gt;25</title>
<path fill="none" stroke="grey" stroke-width="2" d="M1560.92,-935.7C1557.99,-927.81 1554.46,-918.3 1551.21,-909.55"/>
<polygon fill="grey" stroke="grey" stroke-width="2" points="1554.46,-908.26 1547.7,-900.1 1547.9,-910.7 1554.46,-908.26"/>
</g>
<!-- 27 -->
<g id="node28" class="node">
<title>27</title>
<path fill="none" stroke="#d8cb56" stroke-width="2" d="M1407.35,-180C1407.35,-180 1377.35,-180 1377.35,-180 1371.35,-180 1365.35,-174 1365.35,-168 1365.35,-168 1365.35,-156 1365.35,-156 1365.35,-150 1371.35,-144 1377.35,-144 1377.35,-144 1407.35,-144 1407.35,-144 1413.35,-144 1419.35,-150 1419.35,-156 1419.35,-156 1419.35,-168 1419.35,-168 1419.35,-174 1413.35,-180 1407.35,-180"/>
<text text-anchor="middle" x="1392.35" y="-159.5" font-family="sans" font-size="10.00">sort</text>
</g>
<!-- 27&#45;&gt;18 -->
<g id="edge35" class="edge">
<title>27&#45;&gt;18</title>
<path fill="none" stroke="grey" stroke-width="2" d="M1369.85,-143.7C1358.39,-134.88 1344.29,-124.03 1331.86,-114.47"/>
<polygon fill="grey" stroke="grey" stroke-width="2" points="1333.64,-111.43 1323.58,-108.1 1329.38,-116.98 1333.64,-111.43"/>
</g>
<!-- 28&#45;&gt;27 -->
<g id="edge46" class="edge">
<title>28&#45;&gt;27</title>
<path fill="none" stroke="grey" stroke-width="2" d="M1405.9,-215.7C1403.89,-207.9 1401.48,-198.51 1399.25,-189.83"/>
<polygon fill="grey" stroke="grey" stroke-width="2" points="1402.63,-188.92 1396.75,-180.1 1395.85,-190.66 1402.63,-188.92"/>
</g>
<!-- 29 -->
<g id="node30" class="node">
<title>29</title>
<path fill="none" stroke="#56d8b9" stroke-width="2" d="M1443.35,-324C1443.35,-324 1413.35,-324 1413.35,-324 1407.35,-324 1401.35,-318 1401.35,-312 1401.35,-312 1401.35,-300 1401.35,-300 1401.35,-294 1407.35,-288 1413.35,-288 1413.35,-288 1443.35,-288 1443.35,-288 1449.35,-288 1455.35,-294 1455.35,-300 1455.35,-300 1455.35,-312 1455.35,-312 1455.35,-318 1449.35,-324 1443.35,-324"/>
<text text-anchor="middle" x="1428.35" y="-303.5" font-family="sans" font-size="10.00">index</text>
</g>
<!-- 29&#45;&gt;28 -->
<g id="edge48" class="edge">
<title>29&#45;&gt;28</title>
<path fill="none" stroke="grey" stroke-width="2" d="M1423.9,-287.7C1421.89,-279.9 1419.48,-270.51 1417.25,-261.83"/>
<polygon fill="grey" stroke="grey" stroke-width="2" points="1420.63,-260.92 1414.75,-252.1 1413.85,-262.66 1420.63,-260.92"/>
</g>
<!-- 30&#45;&gt;29 -->
<g id="edge50" class="edge">
<title>30&#45;&gt;29</title>
<path fill="none" stroke="grey" stroke-width="2" d="M1379.42,-359.7C1387.29,-351.22 1396.9,-340.86 1405.52,-331.58"/>
<polygon fill="grey" stroke="grey" stroke-width="2" points="1408.23,-333.81 1412.47,-324.1 1403.1,-329.05 1408.23,-333.81"/>
</g>
<!-- 31 -->
<g id="node32" class="node">
<title>31</title>
<path fill="none" stroke="#5682d8" stroke-width="2" d="M1371.35,-324C1371.35,-324 1341.35,-324 1341.35,-324 1335.35,-324 1329.35,-318 1329.35,-312 1329.35,-312 1329.35,-300 1329.35,-300 1329.35,-294 1335.35,-288 1341.35,-288 1341.35,-288 1371.35,-288 1371.35,-288 1377.35,-288 1383.35,-294 1383.35,-300 1383.35,-300 1383.35,-312 1383.35,-312 1383.35,-318 1377.35,-324 1371.35,-324"/>
<text text-anchor="middle" x="1356.35" y="-303.5" font-family="sans" font-size="10.00">dict</text>
</g>
<!-- 30&#45;&gt;31 -->
<g id="edge52" class="edge">
<title>30&#45;&gt;31</title>
<path fill="none" stroke="grey" stroke-width="2" d="M1361.62,-359.7C1360.85,-351.98 1359.92,-342.71 1359.06,-334.11"/>
<polygon fill="grey" stroke="grey" stroke-width="2" points="1362.54,-333.71 1358.06,-324.1 1355.57,-334.4 1362.54,-333.71"/>
</g>
<!-- 31&#45;&gt;28 -->
<g id="edge49" class="edge">
<title>31&#45;&gt;28</title>
<path fill="none" stroke="grey" stroke-width="2" d="M1369.7,-287.7C1376.1,-279.39 1383.91,-269.28 1390.95,-260.14"/>
<polygon fill="grey" stroke="grey" stroke-width="2" points="1393.82,-262.16 1397.15,-252.1 1388.27,-257.88 1393.82,-262.16"/>
</g>
<!-- 32&#45;&gt;0 -->
<g id="edge5" class="edge">
<title>32&#45;&gt;0</title>
<path fill="none" stroke="grey" stroke-width="2" d="M665.19,-359.61C670.74,-332.94 680.35,-280.27 680.35,-235 680.35,-235 680.35,-235 680.35,-161 680.35,-119.63 695.58,-73.72 706.76,-45.61"/>
<polygon fill="grey" stroke="grey" stroke-width="2" points="710.1,-46.67 710.66,-36.09 703.63,-44.02 710.1,-46.67"/>
</g>
<!-- 33&#45;&gt;0 -->
<g id="edge6" class="edge">
<title>33&#45;&gt;0</title>
<path fill="none" stroke="grey" stroke-width="2" d="M1537.57,-359.97C1534.95,-333.34 1530.35,-280.21 1530.35,-235 1530.35,-235 1530.35,-235 1530.35,-161 1530.35,-66.54 1428.66,-96.17 1337.35,-72 1226.38,-42.63 872.01,-25.46 755.71,-20.51"/>
<polygon fill="grey" stroke="grey" stroke-width="2" points="755.67,-17 745.53,-20.08 755.37,-24 755.67,-17"/>
</g>
<!-- 34&#45;&gt;0 -->
<g id="edge7" class="edge">
<title>34&#45;&gt;0</title>
<path fill="none" stroke="grey" stroke-width="2" d="M405.6,-359.63C411.73,-332.99 422.35,-280.36 422.35,-235 422.35,-235 422.35,-235 422.35,-161 422.35,-47.41 601.75,-24.62 681.22,-20.09"/>
<polygon fill="grey" stroke="grey" stroke-width="2" points="681.48,-23.59 691.3,-19.59 681.13,-16.59 681.48,-23.59"/>
</g>
<!-- 37 -->
<g id="node38" class="node">
<title>37</title>
<path fill="none" stroke="#d88556" stroke-width="2" d="M382.35,-324C382.35,-324 296.35,-324 296.35,-324 290.35,-324 284.35,-318 284.35,-312 284.35,-312 284.35,-300 284.35,-300 284.35,-294 290.35,-288 296.35,-288 296.35,-288 382.35,-288 382.35,-288 388.35,-288 394.35,-294 394.35,-300 394.35,-300 394.35,-312 394.35,-312 394.35,-318 388.35,-324 382.35,-324"/>
<text text-anchor="middle" x="339.35" y="-303.5" font-family="sans" font-size="10.00">harmonize_metabat</text>
</g>
<!-- 34&#45;&gt;37 -->
<g id="edge63" class="edge">
<title>34&#45;&gt;37</title>
<path fill="none" stroke="grey" stroke-width="2" d="M386.02,-359.7C378.59,-351.3 369.52,-341.07 361.37,-331.86"/>
<polygon fill="grey" stroke="grey" stroke-width="2" points="363.75,-329.27 354.5,-324.1 358.51,-333.91 363.75,-329.27"/>
</g>
<!-- 35&#45;&gt;0 -->
<g id="edge8" class="edge">
<title>35&#45;&gt;0</title>
<path fill="none" stroke="grey" stroke-width="2" d="M1242.74,-359.95C1243.33,-333.29 1244.35,-280.12 1244.35,-235 1244.35,-235 1244.35,-235 1244.35,-161 1244.35,-59.66 875.81,-28.48 755.7,-21.01"/>
<polygon fill="grey" stroke="grey" stroke-width="2" points="755.71,-17.5 745.52,-20.4 755.29,-24.49 755.71,-17.5"/>
</g>
<!-- 41 -->
<g id="node42" class="node">
<title>41</title>
<path fill="none" stroke="#d88556" stroke-width="2" d="M1204.35,-324C1204.35,-324 1118.35,-324 1118.35,-324 1112.35,-324 1106.35,-318 1106.35,-312 1106.35,-312 1106.35,-300 1106.35,-300 1106.35,-294 1112.35,-288 1118.35,-288 1118.35,-288 1204.35,-288 1204.35,-288 1210.35,-288 1216.35,-294 1216.35,-300 1216.35,-300 1216.35,-312 1216.35,-312 1216.35,-318 1210.35,-324 1204.35,-324"/>
<text text-anchor="middle" x="1161.35" y="-303.5" font-family="sans" font-size="10.00">harmonize_metabat</text>
</g>
<!-- 35&#45;&gt;41 -->
<g id="edge68" class="edge">
<title>35&#45;&gt;41</title>
<path fill="none" stroke="grey" stroke-width="2" d="M1222.33,-359.7C1212.22,-350.97 1199.81,-340.24 1188.83,-330.75"/>
<polygon fill="grey" stroke="grey" stroke-width="2" points="1190.99,-327.99 1181.14,-324.1 1186.42,-333.29 1190.99,-327.99"/>
</g>
<!-- 36&#45;&gt;0 -->
<g id="edge9" class="edge">
<title>36&#45;&gt;0</title>
<path fill="none" stroke="grey" stroke-width="2" d="M230.07,-215.98C260.49,-192.08 317.44,-147.11 365.35,-108 384.65,-92.24 385.73,-82.46 408.35,-72 499.98,-29.62 620.96,-20.81 681.1,-19.19"/>
<polygon fill="grey" stroke="grey" stroke-width="2" points="681.33,-22.68 691.25,-18.97 681.18,-15.68 681.33,-22.68"/>
</g>
<!-- 37&#45;&gt;36 -->
<g id="edge59" class="edge">
<title>37&#45;&gt;36</title>
<path fill="none" stroke="grey" stroke-width="2" d="M307.3,-287.88C288.47,-277.81 264.59,-265.05 245.01,-254.59"/>
<polygon fill="grey" stroke="grey" stroke-width="2" points="246.54,-251.44 236.07,-249.81 243.24,-257.61 246.54,-251.44"/>
</g>
<!-- 38 -->
<g id="node39" class="node">
<title>38</title>
<path fill="none" stroke="#d86656" stroke-width="2" d="M254.35,-324C254.35,-324 162.35,-324 162.35,-324 156.35,-324 150.35,-318 150.35,-312 150.35,-312 150.35,-300 150.35,-300 150.35,-294 156.35,-288 162.35,-288 162.35,-288 254.35,-288 254.35,-288 260.35,-288 266.35,-294 266.35,-300 266.35,-300 266.35,-312 266.35,-312 266.35,-318 260.35,-324 254.35,-324"/>
<text text-anchor="middle" x="208.35" y="-309" font-family="sans" font-size="10.00">harmonize_maxbin</text>
<text text-anchor="middle" x="208.35" y="-298" font-family="sans" font-size="10.00">sample: shotgun_new</text>
</g>
<!-- 38&#45;&gt;36 -->
<g id="edge60" class="edge">
<title>38&#45;&gt;36</title>
<path fill="none" stroke="grey" stroke-width="2" d="M208.35,-287.7C208.35,-279.98 208.35,-270.71 208.35,-262.11"/>
<polygon fill="grey" stroke="grey" stroke-width="2" points="211.85,-262.1 208.35,-252.1 204.85,-262.1 211.85,-262.1"/>
</g>
<!-- 39 -->
<g id="node40" class="node">
<title>39</title>
<path fill="none" stroke="#d85656" stroke-width="2" d="M120.35,-324C120.35,-324 28.35,-324 28.35,-324 22.35,-324 16.35,-318 16.35,-312 16.35,-312 16.35,-300 16.35,-300 16.35,-294 22.35,-288 28.35,-288 28.35,-288 120.35,-288 120.35,-288 126.35,-288 132.35,-294 132.35,-300 132.35,-300 132.35,-312 132.35,-312 132.35,-318 126.35,-324 120.35,-324"/>
<text text-anchor="middle" x="74.35" y="-309" font-family="sans" font-size="10.00">harmonize_vamb</text>
<text text-anchor="middle" x="74.35" y="-298" font-family="sans" font-size="10.00">sample: shotgun_new</text>
</g>
<!-- 39&#45;&gt;36 -->
<g id="edge61" class="edge">
<title>39&#45;&gt;36</title>
<path fill="none" stroke="grey" stroke-width="2" d="M107.13,-287.88C126.61,-277.7 151.38,-264.76 171.53,-254.23"/>
<polygon fill="grey" stroke="grey" stroke-width="2" points="173.19,-257.31 180.43,-249.58 169.95,-251.11 173.19,-257.31"/>
</g>
<!-- 40&#45;&gt;0 -->
<g id="edge10" class="edge">
<title>40&#45;&gt;0</title>
<path fill="none" stroke="grey" stroke-width="2" d="M873.54,-215.9C854.21,-185.76 811.85,-121.68 770.35,-72 762.08,-62.11 752.34,-51.86 743.54,-43.04"/>
<polygon fill="grey" stroke="grey" stroke-width="2" points="745.99,-40.54 736.41,-36 741.07,-45.52 745.99,-40.54"/>
</g>
<!-- 41&#45;&gt;40 -->
<g id="edge64" class="edge">
<title>41&#45;&gt;40</title>
<path fill="none" stroke="grey" stroke-width="2" d="M1106.2,-290.29C1103.21,-289.51 1100.24,-288.74 1097.35,-288 1035.98,-272.22 964.46,-254.57 921.88,-244.15"/>
<polygon fill="grey" stroke="grey" stroke-width="2" points="922.5,-240.7 911.96,-241.72 920.84,-247.5 922.5,-240.7"/>
</g>
<!-- 42 -->
<g id="node43" class="node">
<title>42</title>
<path fill="none" stroke="#d86656" stroke-width="2" d="M1076.35,-324C1076.35,-324 976.35,-324 976.35,-324 970.35,-324 964.35,-318 964.35,-312 964.35,-312 964.35,-300 964.35,-300 964.35,-294 970.35,-288 976.35,-288 976.35,-288 1076.35,-288 1076.35,-288 1082.35,-288 1088.35,-294 1088.35,-300 1088.35,-300 1088.35,-312 1088.35,-312 1088.35,-318 1082.35,-324 1076.35,-324"/>
<text text-anchor="middle" x="1026.35" y="-309" font-family="sans" font-size="10.00">harmonize_maxbin</text>
<text text-anchor="middle" x="1026.35" y="-298" font-family="sans" font-size="10.00">sample: shotgun_fahad</text>
</g>
<!-- 42&#45;&gt;40 -->
<g id="edge65" class="edge">
<title>42&#45;&gt;40</title>
<path fill="none" stroke="grey" stroke-width="2" d="M991.61,-287.88C970.3,-277.37 943.02,-263.92 921.31,-253.22"/>
<polygon fill="grey" stroke="grey" stroke-width="2" points="922.59,-249.95 912.08,-248.67 919.5,-256.23 922.59,-249.95"/>
</g>
<!-- 43 -->
<g id="node44" class="node">
<title>43</title>
<path fill="none" stroke="#d85656" stroke-width="2" d="M934.35,-324C934.35,-324 834.35,-324 834.35,-324 828.35,-324 822.35,-318 822.35,-312 822.35,-312 822.35,-300 822.35,-300 822.35,-294 828.35,-288 834.35,-288 834.35,-288 934.35,-288 934.35,-288 940.35,-288 946.35,-294 946.35,-300 946.35,-300 946.35,-312 946.35,-312 946.35,-318 940.35,-324 934.35,-324"/>
<text text-anchor="middle" x="884.35" y="-309" font-family="sans" font-size="10.00">harmonize_vamb</text>
<text text-anchor="middle" x="884.35" y="-298" font-family="sans" font-size="10.00">sample: shotgun_fahad</text>
</g>
<!-- 43&#45;&gt;40 -->
<g id="edge66" class="edge">
<title>43&#45;&gt;40</title>
<path fill="none" stroke="grey" stroke-width="2" d="M884.35,-287.7C884.35,-279.98 884.35,-270.71 884.35,-262.11"/>
<polygon fill="grey" stroke="grey" stroke-width="2" points="887.85,-262.1 884.35,-252.1 880.85,-262.1 887.85,-262.1"/>
</g>
<!-- 44&#45;&gt;0 -->
<g id="edge11" class="edge">
<title>44&#45;&gt;0</title>
<path fill="none" stroke="grey" stroke-width="2" d="M703.19,-647.61C708.74,-620.94 718.35,-568.27 718.35,-523 718.35,-523 718.35,-523 718.35,-161 718.35,-121 718.35,-74.65 718.35,-46.08"/>
<polygon fill="grey" stroke="grey" stroke-width="2" points="721.85,-46.05 718.35,-36.05 714.85,-46.05 721.85,-46.05"/>
</g>
<!-- 45&#45;&gt;0 -->
<g id="edge12" class="edge">
<title>45&#45;&gt;0</title>
<path fill="none" stroke="grey" stroke-width="2" d="M1595.35,-575.95C1595.35,-549.29 1595.35,-496.11 1595.35,-451 1595.35,-451 1595.35,-451 1595.35,-161 1595.35,-80.4 1514.5,-95.3 1437.35,-72 1307.84,-32.89 884.37,-22.04 755.74,-19.61"/>
<polygon fill="grey" stroke="grey" stroke-width="2" points="755.66,-16.11 745.6,-19.42 755.53,-23.11 755.66,-16.11"/>
</g>
<!-- 46 -->
<g id="node47" class="node">
<title>46</title>
<path fill="none" stroke="#d89556" stroke-width="2" d="M970.35,-756C970.35,-756 920.35,-756 920.35,-756 914.35,-756 908.35,-750 908.35,-744 908.35,-744 908.35,-732 908.35,-732 908.35,-726 914.35,-720 920.35,-720 920.35,-720 970.35,-720 970.35,-720 976.35,-720 982.35,-726 982.35,-732 982.35,-732 982.35,-744 982.35,-744 982.35,-750 976.35,-756 970.35,-756"/>
<text text-anchor="middle" x="945.35" y="-735.5" font-family="sans" font-size="10.00">merge_fasta</text>
</g>
<!-- 46&#45;&gt;0 -->
<g id="edge13" class="edge">
<title>46&#45;&gt;0</title>
<path fill="none" stroke="grey" stroke-width="2" d="M908.01,-727.27C852.93,-710.4 756.35,-670.11 756.35,-595 756.35,-595 756.35,-595 756.35,-161 756.35,-119.63 741.11,-73.72 729.94,-45.61"/>
<polygon fill="grey" stroke="grey" stroke-width="2" points="733.07,-44.02 726.04,-36.09 726.59,-46.67 733.07,-44.02"/>
</g>
<!-- 47 -->
<g id="node48" class="node">
<title>47</title>
<path fill="none" stroke="#d87556" stroke-width="2" d="M1071.35,-828C1071.35,-828 1015.35,-828 1015.35,-828 1009.35,-828 1003.35,-822 1003.35,-816 1003.35,-816 1003.35,-804 1003.35,-804 1003.35,-798 1009.35,-792 1015.35,-792 1015.35,-792 1071.35,-792 1071.35,-792 1077.35,-792 1083.35,-798 1083.35,-804 1083.35,-804 1083.35,-816 1083.35,-816 1083.35,-822 1077.35,-828 1071.35,-828"/>
<text text-anchor="middle" x="1043.35" y="-807.5" font-family="sans" font-size="10.00">convert_fasta</text>
</g>
<!-- 47&#45;&gt;46 -->
<g id="edge71" class="edge">
<title>47&#45;&gt;46</title>
<path fill="none" stroke="grey" stroke-width="2" d="M1019.37,-791.88C1006.8,-782.89 991.22,-771.76 977.6,-762.03"/>
<polygon fill="grey" stroke="grey" stroke-width="2" points="979.59,-759.15 969.41,-756.19 975.52,-764.85 979.59,-759.15"/>
</g>
<!-- 48 -->
<g id="node49" class="node">
<title>48</title>
<path fill="none" stroke="#88d856" stroke-width="2" d="M1113.85,-900C1113.85,-900 970.85,-900 970.85,-900 964.85,-900 958.85,-894 958.85,-888 958.85,-888 958.85,-876 958.85,-876 958.85,-870 964.85,-864 970.85,-864 970.85,-864 1113.85,-864 1113.85,-864 1119.85,-864 1125.85,-870 1125.85,-876 1125.85,-876 1125.85,-888 1125.85,-888 1125.85,-894 1119.85,-900 1113.85,-900"/>
<text text-anchor="middle" x="1042.35" y="-885" font-family="sans" font-size="10.00">nanofilt_amplicon</text>
<text text-anchor="middle" x="1042.35" y="-874" font-family="sans" font-size="10.00">amplicon: BC04_porechop_fahad</text>
</g>
<!-- 48&#45;&gt;47 -->
<g id="edge77" class="edge">
<title>48&#45;&gt;47</title>
<path fill="none" stroke="grey" stroke-width="2" d="M1042.6,-863.7C1042.71,-855.98 1042.84,-846.71 1042.96,-838.11"/>
<polygon fill="grey" stroke="grey" stroke-width="2" points="1046.46,-838.15 1043.1,-828.1 1039.46,-838.05 1046.46,-838.15"/>
</g>
<!-- 49 -->
<g id="node50" class="node">
<title>49</title>
<path fill="none" stroke="#56d88a" stroke-width="2" d="M1109.85,-972C1109.85,-972 974.85,-972 974.85,-972 968.85,-972 962.85,-966 962.85,-960 962.85,-960 962.85,-948 962.85,-948 962.85,-942 968.85,-936 974.85,-936 974.85,-936 1109.85,-936 1109.85,-936 1115.85,-936 1121.85,-942 1121.85,-948 1121.85,-948 1121.85,-960 1121.85,-960 1121.85,-966 1115.85,-972 1109.85,-972"/>
<text text-anchor="middle" x="1042.35" y="-957" font-family="sans" font-size="10.00">porechop</text>
<text text-anchor="middle" x="1042.35" y="-946" font-family="sans" font-size="10.00">sample: BC04_porechop_fahad</text>
</g>
<!-- 49&#45;&gt;48 -->
<g id="edge78" class="edge">
<title>49&#45;&gt;48</title>
<path fill="none" stroke="grey" stroke-width="2" d="M1042.35,-935.7C1042.35,-927.98 1042.35,-918.71 1042.35,-910.11"/>
<polygon fill="grey" stroke="grey" stroke-width="2" points="1045.85,-910.1 1042.35,-900.1 1038.85,-910.1 1045.85,-910.1"/>
</g>
<!-- 50 -->
<g id="node51" class="node">
<title>50</title>
<path fill="none" stroke="#d87556" stroke-width="2" d="M1176.35,-828C1176.35,-828 1120.35,-828 1120.35,-828 1114.35,-828 1108.35,-822 1108.35,-816 1108.35,-816 1108.35,-804 1108.35,-804 1108.35,-798 1114.35,-792 1120.35,-792 1120.35,-792 1176.35,-792 1176.35,-792 1182.35,-792 1188.35,-798 1188.35,-804 1188.35,-804 1188.35,-816 1188.35,-816 1188.35,-822 1182.35,-828 1176.35,-828"/>
<text text-anchor="middle" x="1148.35" y="-807.5" font-family="sans" font-size="10.00">convert_fasta</text>
</g>
<!-- 50&#45;&gt;46 -->
<g id="edge72" class="edge">
<title>50&#45;&gt;46</title>
<path fill="none" stroke="grey" stroke-width="2" d="M1108.24,-795.17C1074.87,-783.66 1027.31,-767.26 992.19,-755.15"/>
<polygon fill="grey" stroke="grey" stroke-width="2" points="993.23,-751.81 982.63,-751.86 990.95,-758.43 993.23,-751.81"/>
</g>
<!-- 51 -->
<g id="node52" class="node">
<title>51</title>
<path fill="none" stroke="#88d856" stroke-width="2" d="M1298.85,-900C1298.85,-900 1155.85,-900 1155.85,-900 1149.85,-900 1143.85,-894 1143.85,-888 1143.85,-888 1143.85,-876 1143.85,-876 1143.85,-870 1149.85,-864 1155.85,-864 1155.85,-864 1298.85,-864 1298.85,-864 1304.85,-864 1310.85,-870 1310.85,-876 1310.85,-876 1310.85,-888 1310.85,-888 1310.85,-894 1304.85,-900 1298.85,-900"/>
<text text-anchor="middle" x="1227.35" y="-885" font-family="sans" font-size="10.00">nanofilt_amplicon</text>
<text text-anchor="middle" x="1227.35" y="-874" font-family="sans" font-size="10.00">amplicon: BC02_porechop_fahad</text>
</g>
<!-- 51&#45;&gt;50 -->
<g id="edge79" class="edge">
<title>51&#45;&gt;50</title>
<path fill="none" stroke="grey" stroke-width="2" d="M1207.82,-863.7C1197.97,-854.97 1185.86,-844.24 1175.15,-834.75"/>
<polygon fill="grey" stroke="grey" stroke-width="2" points="1177.46,-832.12 1167.65,-828.1 1172.81,-837.36 1177.46,-832.12"/>
</g>
<!-- 52 -->
<g id="node53" class="node">
<title>52</title>
<path fill="none" stroke="#56d88a" stroke-width="2" d="M1294.85,-972C1294.85,-972 1159.85,-972 1159.85,-972 1153.85,-972 1147.85,-966 1147.85,-960 1147.85,-960 1147.85,-948 1147.85,-948 1147.85,-942 1153.85,-936 1159.85,-936 1159.85,-936 1294.85,-936 1294.85,-936 1300.85,-936 1306.85,-942 1306.85,-948 1306.85,-948 1306.85,-960 1306.85,-960 1306.85,-966 1300.85,-972 1294.85,-972"/>
<text text-anchor="middle" x="1227.35" y="-957" font-family="sans" font-size="10.00">porechop</text>
<text text-anchor="middle" x="1227.35" y="-946" font-family="sans" font-size="10.00">sample: BC02_porechop_fahad</text>
</g>
<!-- 52&#45;&gt;51 -->
<g id="edge80" class="edge">
<title>52&#45;&gt;51</title>
<path fill="none" stroke="grey" stroke-width="2" d="M1227.35,-935.7C1227.35,-927.98 1227.35,-918.71 1227.35,-910.11"/>
<polygon fill="grey" stroke="grey" stroke-width="2" points="1230.85,-910.1 1227.35,-900.1 1223.85,-910.1 1230.85,-910.1"/>
</g>
<!-- 53 -->
<g id="node54" class="node">
<title>53</title>
<path fill="none" stroke="#d87556" stroke-width="2" d="M1288.35,-828C1288.35,-828 1232.35,-828 1232.35,-828 1226.35,-828 1220.35,-822 1220.35,-816 1220.35,-816 1220.35,-804 1220.35,-804 1220.35,-798 1226.35,-792 1232.35,-792 1232.35,-792 1288.35,-792 1288.35,-792 1294.35,-792 1300.35,-798 1300.35,-804 1300.35,-804 1300.35,-816 1300.35,-816 1300.35,-822 1294.35,-828 1288.35,-828"/>
<text text-anchor="middle" x="1260.35" y="-807.5" font-family="sans" font-size="10.00">convert_fasta</text>
</g>
<!-- 53&#45;&gt;46 -->
<g id="edge73" class="edge">
<title>53&#45;&gt;46</title>
<path fill="none" stroke="grey" stroke-width="2" d="M1220.1,-797.78C1212.56,-795.78 1204.73,-793.77 1197.35,-792 1126.38,-774.98 1043.44,-758.11 992.66,-748.13"/>
<polygon fill="grey" stroke="grey" stroke-width="2" points="993.13,-744.65 982.64,-746.16 991.78,-751.52 993.13,-744.65"/>
</g>
<!-- 54 -->
<g id="node55" class="node">
<title>54</title>
<path fill="none" stroke="#88d856" stroke-width="2" d="M1483.85,-900C1483.85,-900 1340.85,-900 1340.85,-900 1334.85,-900 1328.85,-894 1328.85,-888 1328.85,-888 1328.85,-876 1328.85,-876 1328.85,-870 1334.85,-864 1340.85,-864 1340.85,-864 1483.85,-864 1483.85,-864 1489.85,-864 1495.85,-870 1495.85,-876 1495.85,-876 1495.85,-888 1495.85,-888 1495.85,-894 1489.85,-900 1483.85,-900"/>
<text text-anchor="middle" x="1412.35" y="-885" font-family="sans" font-size="10.00">nanofilt_amplicon</text>
<text text-anchor="middle" x="1412.35" y="-874" font-family="sans" font-size="10.00">amplicon: BC03_porechop_fahad</text>
</g>
<!-- 54&#45;&gt;53 -->
<g id="edge81" class="edge">
<title>54&#45;&gt;53</title>
<path fill="none" stroke="grey" stroke-width="2" d="M1375.16,-863.88C1354.48,-854.35 1328.55,-842.41 1306.56,-832.28"/>
<polygon fill="grey" stroke="grey" stroke-width="2" points="1307.96,-829.07 1297.41,-828.07 1305.03,-835.43 1307.96,-829.07"/>
</g>
<!-- 55 -->
<g id="node56" class="node">
<title>55</title>
<path fill="none" stroke="#56d88a" stroke-width="2" d="M1475.85,-972C1475.85,-972 1340.85,-972 1340.85,-972 1334.85,-972 1328.85,-966 1328.85,-960 1328.85,-960 1328.85,-948 1328.85,-948 1328.85,-942 1334.85,-936 1340.85,-936 1340.85,-936 1475.85,-936 1475.85,-936 1481.85,-936 1487.85,-942 1487.85,-948 1487.85,-948 1487.85,-960 1487.85,-960 1487.85,-966 1481.85,-972 1475.85,-972"/>
<text text-anchor="middle" x="1408.35" y="-957" font-family="sans" font-size="10.00">porechop</text>
<text text-anchor="middle" x="1408.35" y="-946" font-family="sans" font-size="10.00">sample: BC03_porechop_fahad</text>
</g>
<!-- 55&#45;&gt;54 -->
<g id="edge82" class="edge">
<title>55&#45;&gt;54</title>
<path fill="none" stroke="grey" stroke-width="2" d="M1409.34,-935.7C1409.78,-927.98 1410.31,-918.71 1410.8,-910.11"/>
<polygon fill="grey" stroke="grey" stroke-width="2" points="1414.29,-910.29 1411.37,-900.1 1407.31,-909.89 1414.29,-910.29"/>
</g>
<!-- 56 -->
<g id="node57" class="node">
<title>56</title>
<path fill="none" stroke="#d87556" stroke-width="2" d="M777.35,-828C777.35,-828 721.35,-828 721.35,-828 715.35,-828 709.35,-822 709.35,-816 709.35,-816 709.35,-804 709.35,-804 709.35,-798 715.35,-792 721.35,-792 721.35,-792 777.35,-792 777.35,-792 783.35,-792 789.35,-798 789.35,-804 789.35,-804 789.35,-816 789.35,-816 789.35,-822 783.35,-828 777.35,-828"/>
<text text-anchor="middle" x="749.35" y="-807.5" font-family="sans" font-size="10.00">convert_fasta</text>
</g>
<!-- 56&#45;&gt;46 -->
<g id="edge74" class="edge">
<title>56&#45;&gt;46</title>
<path fill="none" stroke="grey" stroke-width="2" d="M789.48,-794.67C821.19,-783.34 865.47,-767.53 898.74,-755.65"/>
<polygon fill="grey" stroke="grey" stroke-width="2" points="900.01,-758.91 908.25,-752.25 897.65,-752.32 900.01,-758.91"/>
</g>
<!-- 57 -->
<g id="node58" class="node">
<title>57</title>
<path fill="none" stroke="#88d856" stroke-width="2" d="M670.85,-900C670.85,-900 583.85,-900 583.85,-900 577.85,-900 571.85,-894 571.85,-888 571.85,-888 571.85,-876 571.85,-876 571.85,-870 577.85,-864 583.85,-864 583.85,-864 670.85,-864 670.85,-864 676.85,-864 682.85,-870 682.85,-876 682.85,-876 682.85,-888 682.85,-888 682.85,-894 676.85,-900 670.85,-900"/>
<text text-anchor="middle" x="627.35" y="-885" font-family="sans" font-size="10.00">nanofilt_amplicon</text>
<text text-anchor="middle" x="627.35" y="-874" font-family="sans" font-size="10.00">amplicon: BC04_new</text>
</g>
<!-- 57&#45;&gt;56 -->
<g id="edge83" class="edge">
<title>57&#45;&gt;56</title>
<path fill="none" stroke="grey" stroke-width="2" d="M657.19,-863.88C673.29,-854.64 693.35,-843.13 710.64,-833.21"/>
<polygon fill="grey" stroke="grey" stroke-width="2" points="712.46,-836.2 719.39,-828.19 708.97,-830.13 712.46,-836.2"/>
</g>
<!-- 58&#45;&gt;57 -->
<g id="edge84" class="edge">
<title>58&#45;&gt;57</title>
<path fill="none" stroke="grey" stroke-width="2" d="M634.88,-935.7C633.77,-927.98 632.45,-918.71 631.22,-910.11"/>
<polygon fill="grey" stroke="grey" stroke-width="2" points="634.67,-909.51 629.79,-900.1 627.74,-910.5 634.67,-909.51"/>
</g>
<!-- 59 -->
<g id="node60" class="node">
<title>59</title>
<path fill="none" stroke="#d87556" stroke-width="2" d="M875.35,-828C875.35,-828 819.35,-828 819.35,-828 813.35,-828 807.35,-822 807.35,-816 807.35,-816 807.35,-804 807.35,-804 807.35,-798 813.35,-792 819.35,-792 819.35,-792 875.35,-792 875.35,-792 881.35,-792 887.35,-798 887.35,-804 887.35,-804 887.35,-816 887.35,-816 887.35,-822 881.35,-828 875.35,-828"/>
<text text-anchor="middle" x="847.35" y="-807.5" font-family="sans" font-size="10.00">convert_fasta</text>
</g>
<!-- 59&#45;&gt;46 -->
<g id="edge75" class="edge">
<title>59&#45;&gt;46</title>
<path fill="none" stroke="grey" stroke-width="2" d="M871.32,-791.88C883.9,-782.89 899.48,-771.76 913.1,-762.03"/>
<polygon fill="grey" stroke="grey" stroke-width="2" points="915.18,-764.85 921.28,-756.19 911.11,-759.15 915.18,-764.85"/>
</g>
<!-- 60 -->
<g id="node61" class="node">
<title>60</title>
<path fill="none" stroke="#88d856" stroke-width="2" d="M799.85,-900C799.85,-900 712.85,-900 712.85,-900 706.85,-900 700.85,-894 700.85,-888 700.85,-888 700.85,-876 700.85,-876 700.85,-870 706.85,-864 712.85,-864 712.85,-864 799.85,-864 799.85,-864 805.85,-864 811.85,-870 811.85,-876 811.85,-876 811.85,-888 811.85,-888 811.85,-894 805.85,-900 799.85,-900"/>
<text text-anchor="middle" x="756.35" y="-885" font-family="sans" font-size="10.00">nanofilt_amplicon</text>
<text text-anchor="middle" x="756.35" y="-874" font-family="sans" font-size="10.00">amplicon: BC02_new</text>
</g>
<!-- 60&#45;&gt;59 -->
<g id="edge86" class="edge">
<title>60&#45;&gt;59</title>
<path fill="none" stroke="grey" stroke-width="2" d="M778.84,-863.7C790.3,-854.88 804.41,-844.03 816.83,-834.47"/>
<polygon fill="grey" stroke="grey" stroke-width="2" points="819.32,-836.98 825.11,-828.1 815.05,-831.43 819.32,-836.98"/>
</g>
<!-- 61&#45;&gt;60 -->
<g id="edge87" class="edge">
<title>61&#45;&gt;60</title>
<path fill="none" stroke="grey" stroke-width="2" d="M757.85,-935.7C757.63,-927.98 757.37,-918.71 757.12,-910.11"/>
<polygon fill="grey" stroke="grey" stroke-width="2" points="760.62,-910 756.84,-900.1 753.62,-910.2 760.62,-910"/>
</g>
<!-- 62 -->
<g id="node63" class="node">
<title>62</title>
<path fill="none" stroke="#d87556" stroke-width="2" d="M973.35,-828C973.35,-828 917.35,-828 917.35,-828 911.35,-828 905.35,-822 905.35,-816 905.35,-816 905.35,-804 905.35,-804 905.35,-798 911.35,-792 917.35,-792 917.35,-792 973.35,-792 973.35,-792 979.35,-792 985.35,-798 985.35,-804 985.35,-804 985.35,-816 985.35,-816 985.35,-822 979.35,-828 973.35,-828"/>
<text text-anchor="middle" x="945.35" y="-807.5" font-family="sans" font-size="10.00">convert_fasta</text>
</g>
<!-- 62&#45;&gt;46 -->
<g id="edge76" class="edge">
<title>62&#45;&gt;46</title>
<path fill="none" stroke="grey" stroke-width="2" d="M945.35,-791.7C945.35,-783.98 945.35,-774.71 945.35,-766.11"/>
<polygon fill="grey" stroke="grey" stroke-width="2" points="948.85,-766.1 945.35,-756.1 941.85,-766.1 948.85,-766.1"/>
</g>
<!-- 63 -->
<g id="node64" class="node">
<title>63</title>
<path fill="none" stroke="#88d856" stroke-width="2" d="M928.85,-900C928.85,-900 841.85,-900 841.85,-900 835.85,-900 829.85,-894 829.85,-888 829.85,-888 829.85,-876 829.85,-876 829.85,-870 835.85,-864 841.85,-864 841.85,-864 928.85,-864 928.85,-864 934.85,-864 940.85,-870 940.85,-876 940.85,-876 940.85,-888 940.85,-888 940.85,-894 934.85,-900 928.85,-900"/>
<text text-anchor="middle" x="885.35" y="-885" font-family="sans" font-size="10.00">nanofilt_amplicon</text>
<text text-anchor="middle" x="885.35" y="-874" font-family="sans" font-size="10.00">amplicon: BC03_new</text>
</g>
<!-- 63&#45;&gt;62 -->
<g id="edge89" class="edge">
<title>63&#45;&gt;62</title>
<path fill="none" stroke="grey" stroke-width="2" d="M900.18,-863.7C907.37,-855.3 916.14,-845.07 924.04,-835.86"/>
<polygon fill="grey" stroke="grey" stroke-width="2" points="926.84,-837.97 930.69,-828.1 921.52,-833.42 926.84,-837.97"/>
</g>
<!-- 64&#45;&gt;63 -->
<g id="edge90" class="edge">
<title>64&#45;&gt;63</title>
<path fill="none" stroke="grey" stroke-width="2" d="M883.84,-935.7C884.06,-927.98 884.33,-918.71 884.57,-910.11"/>
<polygon fill="grey" stroke="grey" stroke-width="2" points="888.07,-910.2 884.86,-900.1 881.07,-910 888.07,-910.2"/>
</g>
</g>
</svg>
